<svg xmlns="http://www.w3.org/2000/svg" version="1.1" xmlns:xlink="http://www.w3.org/1999/xlink" xmlns:svgjs="http://svgjs.dev/svgjs" width="1000" height="1000" viewBox="0 0 1000 1000"><g transform="matrix(1,0,0,1,0,0)"><svg viewBox="0 0 280 280" data-background-color="#ffffff" preserveAspectRatio="xMidYMid meet" height="1000" width="1000" xmlns="http://www.w3.org/2000/svg" xmlns:xlink="http://www.w3.org/1999/xlink"><g id="tight-bounds" transform="matrix(1,0,0,1,0,0)"><svg viewBox="0 0 280 280" height="280" width="280"><g><svg viewBox="0 0 280 280" height="280" width="280"><g><svg viewBox="0 0 280 280" height="280" width="280"><g id="textblocktransform"><svg viewBox="0 0 280 280" height="280" width="280" id="textblock"><g><svg viewBox="0 0 280 280" height="280" width="280"><g transform="matrix(1,0,0,1,104.1014195513309,90.50252531694167)"><svg viewBox="0 0 71.7971608973382 98.99494936611664" height="98.99494936611664" width="71.7971608973382"><g><svg xmlns="http://www.w3.org/2000/svg" xmlns:xlink="http://www.w3.org/1999/xlink" version="1.1" x="0" y="0" viewBox="15 1.7409999370574951 70 96.51699829101562" enable-background="new 0 0 100 100" xml:space="preserve" height="98.99494936611664" width="71.7971608973382" class="icon-o-0" data-fill-palette-color="accent" id="o-0"><path d="M84.175 34.768L56.589 4.159 54.45 1.741l-2.755 1.705L32.676 15.124l-0.543 0.337-0.41 0.495-15.8 18.932L15 35.979v1.422 38.592 1.95l1.569 1.178 13.415 10.164 0.373 0.28 0.426 0.186 17.734 7.785 1.644 0.722 1.621-0.771L82.95 82.566 85 81.501v-2.479-41.62V35.89L84.175 34.768zM31.271 72.192l9.966 9.521-8.282 4.106L31.271 72.192zM21.647 39.481l9.816 5.272 8.065 28.481L31 56.359l0 0 0 0L21.647 39.481zM30.105 33.782l0.881 8.573-9.682-5.126L30.105 33.782zM28.567 56.813L19 73.978V39.156L28.567 56.813zM30.93 69.152l-0.204-8.177 8.512 16.114L30.93 69.152zM43.728 81.2L33.492 45.209l25.992 2.718 6.872 15.822L66 85.983l0 0-2.881 1.651L43.728 81.2zM66.338 39.62l6.923 14.971-11.747-7.849L66.338 39.62zM67.957 62.006l-5.515-12.283 11.492 7.679L67.957 62.006zM68.55 64.027l6.528-5.028 5.931 20.233-12.575 5.984L68.55 64.027zM76 57.008L76 57.008 76 57.008l-7.94-17.401L81 45.446v28.323L76 57.008zM81 43.293l-13.77-6.306-0.728-15.743L81 37.401V43.293zM53.738 6.792L65 19.206l0 0 0.607 18.142-5.892 8.624-26.644-2.784-1.268-10.71L35 18.121l0 0L53.738 6.792zM33.24 20.27l-3.107 11.393-9.494 3.719L33.24 20.27zM20 76L20 76l8.844-15.8 0.178 9.16-2.905 11.751L19.918 76H20zM27.801 82.699l1.848-7.653 1.232 9.988L27.801 82.699zM50.096 93.943l-15.437-6.777 8.344-4.137 17.779 5.83L50.096 93.943z" fill="#e8772e" data-fill-palette-color="accent"></path></svg></g></svg></g><g><path d="M23.215 104.19c-0.499 1.558-1.453 2.577-2.863 3.057-1.41 0.48-3.244 0.358-5.503-0.365v0c-2.547-0.816-4.6-2.022-6.16-3.619-1.554-1.595-2.585-3.3-3.094-5.117-0.502-1.814-0.523-3.438-0.064-4.871v0c0.3-0.936 0.746-1.699 1.34-2.289 0.593-0.59 1.256-0.767 1.989-0.532v0c0.524 0.168 1.034 0.558 1.53 1.172v0c0.11 0.151 0.184 0.272 0.22 0.363 0.042 0.093 0.046 0.195 0.01 0.306v0c-0.04 0.124-0.127 0.194-0.262 0.209-0.135 0.015-0.284 0.007-0.447-0.024-0.17-0.033-0.294-0.051-0.372-0.055v0c-0.642-0.09-1.214 0.037-1.714 0.383-0.494 0.347-0.873 0.933-1.137 1.758v0c-0.465 1.453-0.304 2.844 0.483 4.172 0.792 1.336 1.921 2.499 3.387 3.488 1.458 0.994 2.949 1.735 4.475 2.224v0c1.742 0.558 3.191 0.665 4.347 0.32 1.161-0.336 1.932-1.096 2.312-2.281v0c0.31-0.969 0.289-1.983-0.065-3.042-0.356-1.052-1.025-2.05-2.009-2.992v0c-0.167-0.176-0.234-0.317-0.201-0.422v0c0.029-0.092 0.146-0.105 0.349-0.04v0c0.105 0.034 0.206 0.077 0.305 0.13 0.107 0.049 0.184 0.091 0.23 0.128v0c0.863 0.572 1.571 1.294 2.122 2.163 0.558 0.872 0.906 1.813 1.044 2.825 0.136 1.018 0.052 2.002-0.252 2.951z" fill="#ba3b0a" data-fill-palette-color="primary"></path><path d="M26.733 94.275c-0.031 0.069-0.069 0.12-0.114 0.152-0.045 0.033-0.083 0.042-0.114 0.028v0c-0.056-0.025-0.147-0.126-0.271-0.302-0.122-0.182-0.328-0.369-0.62-0.56v0c-0.327-0.229-0.63-0.436-0.908-0.621-0.279-0.185-0.534-0.363-0.766-0.534v0c-2.169-1.482-3.688-2.505-4.559-3.068-0.868-0.569-1.522-0.941-1.964-1.116v0c-0.226-0.101-0.396-0.158-0.51-0.172-0.117-0.007-0.203 0.049-0.256 0.168v0c-0.07 0.157-0.03 0.412 0.121 0.766 0.148 0.36 0.349 0.717 0.604 1.073v0c0.111 0.155 0.208 0.293 0.29 0.412 0.082 0.12 0.138 0.213 0.169 0.279 0.031 0.066 0.035 0.125 0.012 0.175v0c-0.031 0.069-0.078 0.108-0.142 0.117-0.067 0.015-0.144 0.003-0.233-0.037v0c-0.326-0.146-0.698-0.535-1.116-1.166-0.418-0.631-0.742-1.304-0.973-2.017-0.231-0.713-0.258-1.268-0.081-1.662v0c0.146-0.326 0.379-0.493 0.699-0.501 0.316-0.017 0.747 0.097 1.293 0.341v0c0.759 0.34 1.709 0.961 2.85 1.862v0l0.021-0.047c-2.38-3.03-3.258-5.242-2.635-6.635v0c0.16-0.358 0.385-0.592 0.676-0.703 0.282-0.107 0.604-0.08 0.968 0.083v0c0.377 0.168 0.726 0.423 1.049 0.763 0.322 0.34 0.563 0.685 0.723 1.035 0.153 0.347 0.188 0.615 0.104 0.803v0c-0.053 0.119-0.151 0.128-0.295 0.027v0c-0.213-0.163-0.389-0.276-0.527-0.338v0c-0.414-0.185-0.722-0.052-0.924 0.4v0c-0.239 0.533-0.167 1.206 0.216 2.017 0.376 0.809 0.923 1.614 1.641 2.418 0.711 0.8 1.402 1.445 2.073 1.933v0c0.698 0.561 1.466 1.059 2.302 1.493v0c0.309 0.184 0.575 0.483 0.796 0.898 0.212 0.419 0.355 0.848 0.429 1.288 0.065 0.443 0.056 0.759-0.028 0.948z" fill="#ba3b0a" data-fill-palette-color="primary"></path><path d="M41.264 89.285c-0.373 0.634-0.864 1.067-1.472 1.299-0.608 0.232-1.242 0.293-1.903 0.183-0.659-0.101-1.272-0.319-1.841-0.654v0c-0.539-0.318-0.908-0.667-1.107-1.047-0.199-0.38-0.291-0.718-0.277-1.013 0.024-0.297 0.069-0.502 0.135-0.615v0c0.049-0.083 0.156-0.076 0.322 0.023v0c2.529 1.49 4.272 1.424 5.228-0.199v0c0.677-1.149 0.518-2.456-0.478-3.921v0c-0.39-0.557-0.928-1.181-1.614-1.872-0.689-0.685-1.789-1.717-3.299-3.094v0c-0.615-0.554-0.965-0.868-1.05-0.942v0l-2.928-2.707-0.016 0.027c0.585 0.863 1.062 1.767 1.431 2.71 0.379 0.941 0.622 1.795 0.729 2.561 0.102 0.762 0.058 1.303-0.13 1.622v0c-0.213 0.361-0.629 0.451-1.249 0.27-0.625-0.185-1.325-0.514-2.1-0.986v0l-5.97-3.782c-0.12-0.095-0.292-0.208-0.517-0.341v0c-0.261-0.154-0.473-0.239-0.639-0.256-0.162-0.023-0.291 0.048-0.389 0.213v0c-0.122 0.207-0.121 0.523 0.004 0.948 0.119 0.421 0.34 0.859 0.663 1.312v0c0.223 0.259 0.301 0.445 0.234 0.557v0c-0.077 0.13-0.213 0.138-0.408 0.023v0c-0.409-0.241-0.785-0.658-1.13-1.252-0.35-0.597-0.57-1.226-0.66-1.885-0.1-0.657-0.029-1.19 0.212-1.599v0c0.265-0.45 0.675-0.624 1.228-0.521 0.55 0.109 1.213 0.392 1.99 0.849v0l0.766 0.488 3.89 2.579 0.793 0.504c0.521 0.307 0.915 0.492 1.182 0.553 0.27 0.056 0.463-0.014 0.578-0.21v0c0.209-0.355 0.117-0.977-0.278-1.864-0.395-0.887-0.958-1.841-1.689-2.862-0.731-1.021-1.466-1.893-2.204-2.616v0l-1.269-1.239c-0.511-0.501-0.795-1.047-0.853-1.64-0.061-0.587 0.009-1.052 0.212-1.395v0c0.077-0.13 0.157-0.171 0.239-0.122v0c0.083 0.049 0.181 0.147 0.294 0.293 0.111 0.137 0.188 0.243 0.233 0.316v0c0.267 0.333 0.571 0.663 0.911 0.993 0.337 0.335 0.754 0.712 1.249 1.13v0l6.161 5.367 1.24 1.066c1.022 0.866 1.815 1.572 2.378 2.119 0.563 0.547 1.077 1.158 1.542 1.831 0.469 0.667 0.886 1.468 1.253 2.402v0c0.544 1.31 0.849 2.519 0.915 3.628 0.071 1.111-0.11 2.034-0.542 2.768z" fill="#ba3b0a" data-fill-palette-color="primary"></path><path d="M39.308 71.361c-0.341 0.474-0.761 0.787-1.258 0.937-0.507 0.152-1.014 0.126-1.52-0.077v0c-0.137-0.056-0.294-0.245-0.469-0.566-0.176-0.321-0.316-0.685-0.423-1.091v0c-0.051-0.223-0.051-0.371 0.002-0.444v0c0.056-0.078 0.162-0.095 0.317-0.052v0c1.401 0.313 2.394 0.062 2.98-0.752v0c0.297-0.413 0.404-0.827 0.321-1.243-0.079-0.421-0.333-0.785-0.762-1.094v0c-0.58-0.417-1.568-0.628-2.963-0.632v0l-1.035-0.008c-0.784-0.005-1.396-0.055-1.835-0.151-0.445-0.1-0.857-0.286-1.237-0.559v0c-0.614-0.442-1.045-1.002-1.294-1.68-0.254-0.683-0.331-1.394-0.23-2.134 0.101-0.741 0.36-1.401 0.777-1.982v0c0.795-1.105 1.569-1.387 2.322-0.845v0c0.273 0.197 0.475 0.494 0.604 0.892v0c0.108 0.238 0.134 0.397 0.078 0.475v0c-0.064 0.089-0.217 0.107-0.457 0.052v0c-0.411-0.041-0.766 0.012-1.068 0.16-0.297 0.142-0.578 0.397-0.843 0.765v0c-0.309 0.43-0.441 0.855-0.397 1.277 0.04 0.427 0.236 0.767 0.588 1.02v0c0.201 0.144 0.473 0.243 0.816 0.295 0.347 0.047 0.911 0.075 1.692 0.086v0l1.019-0.004c0.873-0.024 1.573 0.026 2.101 0.151 0.522 0.122 1.007 0.343 1.453 0.664v0c0.564 0.405 0.992 0.993 1.285 1.763 0.297 0.764 0.401 1.58 0.311 2.447-0.09 0.867-0.382 1.643-0.875 2.33z" fill="#ba3b0a" data-fill-palette-color="primary"></path><path d="M46.584 61.934c-0.366 0.429-0.769 0.605-1.209 0.528-0.44-0.077-0.911-0.33-1.414-0.758v0c-0.371-0.317-0.74-0.69-1.106-1.119-0.37-0.424-0.591-0.68-0.661-0.766v0l-4.783-5.595-1.853 2.174c-0.058 0.068-0.121 0.073-0.189 0.015v0c-0.146-0.125-0.217-0.456-0.211-0.993 0.001-0.541 0.064-0.885 0.188-1.032v0l1.097-1.287-1.147-1.357c-0.427-0.463-0.661-1.047-0.702-1.751-0.041-0.704 0.103-1.249 0.432-1.636v0c0.058-0.068 0.124-0.071 0.197-0.008v0c0.058 0.049 0.171 0.255 0.342 0.616 0.171 0.372 0.389 0.72 0.654 1.045v0l1.435 1.671 1.799-2.112c0.071-0.084 0.149-0.09 0.233-0.018v0c0.115 0.098 0.166 0.431 0.153 0.997-0.018 0.572-0.069 0.908-0.154 1.007v0l-1.024 1.201 4.73 5.563c0.086 0.1 0.296 0.347 0.63 0.74 0.334 0.393 0.61 0.683 0.83 0.87v0c0.471 0.401 0.84 0.445 1.108 0.131v0c0.196-0.23 0.291-0.569 0.284-1.018 0.003-0.449-0.112-0.944-0.345-1.486v0c-0.013-0.038-0.026-0.081-0.039-0.129-0.008-0.043-0.001-0.078 0.021-0.104v0c0.062-0.073 0.185-0.032 0.368 0.124v0c0.288 0.245 0.518 0.658 0.691 1.24 0.173 0.581 0.235 1.176 0.186 1.785-0.053 0.614-0.234 1.101-0.541 1.462z" fill="#ba3b0a" data-fill-palette-color="primary"></path><path d="M51.686 56.321c-0.686 0.675-1.668 0.362-2.945-0.937v0c-1.229-1.25-2.169-2.751-2.819-4.502-0.651-1.751-0.893-3.469-0.728-5.154 0.165-1.685 0.785-3.056 1.859-4.111v0c0.554-0.545 1.119-0.926 1.694-1.145v0c0.498 0.86 0.874 1.483 1.129 1.869v0l1.713 2.596c1.309 2.087 2.25 3.5 2.821 4.24v0c0.077 0.108 0.18 0.228 0.311 0.36v0c0.294 0.299 0.529 0.362 0.705 0.188v0c0.216-0.212 0.279-0.549 0.191-1.012-0.084-0.458-0.253-1.062-0.509-1.813v0c0-0.029-0.016-0.09-0.049-0.182-0.033-0.102-0.023-0.18 0.031-0.233v0c0.083-0.082 0.205-0.042 0.363 0.119v0l0.274 0.367c0.341 0.533 0.578 1.157 0.713 1.873 0.135 0.716 0.151 1.38 0.049 1.992-0.098 0.607-0.289 1.05-0.574 1.329v0c-0.471 0.463-1.082 0.311-1.833-0.453v0c-0.289-0.294-0.551-0.629-0.786-1.006v0l-1.382-2.098-0.022 0.022c0.466 1.769 0.68 3.365 0.644 4.789-0.042 1.419-0.325 2.387-0.85 2.902zM51.016 53.741c0.373-0.366 0.515-1.084 0.427-2.154-0.083-1.065-0.326-2.229-0.728-3.492-0.412-1.263-0.867-2.309-1.365-3.141v0l-0.949-1.612c-0.662 0.13-1.217 0.415-1.663 0.853v0c-0.579 0.569-0.78 1.418-0.605 2.547 0.18 1.134 0.6 2.307 1.26 3.519 0.66 1.211 1.369 2.202 2.125 2.971v0c0.328 0.333 0.61 0.547 0.848 0.642 0.242 0.099 0.459 0.055 0.65-0.133z" fill="#ba3b0a" data-fill-palette-color="primary"></path><path d="M61.512 47.183c-0.281 0.222-0.589 0.247-0.927 0.075-0.347-0.173-0.684-0.467-1.012-0.883v0c-0.222-0.281-0.454-0.636-0.697-1.065v0l-5.593-9.775c-1.277-2.259-2.124-4.109-2.543-5.548-0.423-1.445-0.518-2.657-0.285-3.638v0c0.134-0.562 0.342-1.059 0.622-1.491 0.276-0.437 0.737-1.069 1.383-1.893v0c0.317-0.364 0.507-0.611 0.571-0.741 0.068-0.124 0.119-0.199 0.151-0.224v0c0.102-0.081 0.201-0.062 0.295 0.056v0c0.047 0.059 0.085 0.174 0.113 0.344 0.024 0.174 0.016 0.386-0.023 0.636v0c-0.047 0.274-0.124 0.497-0.233 0.67-0.107 0.164-0.257 0.334-0.449 0.513v0c-0.79 0.764-1.202 1.523-1.236 2.277v0c-0.071 1.396 0.606 3.346 2.03 5.848v0l6.634 11.725c0.065 0.115 0.155 0.246 0.27 0.391v0c0.26 0.329 0.487 0.417 0.681 0.264v0c0.442-0.349 0.44-1.417-0.006-3.202v0c-0.069-0.209-0.052-0.354 0.051-0.435v0c0.102-0.081 0.235-0.019 0.397 0.186v0c0.384 0.486 0.624 1.145 0.722 1.979 0.097 0.843 0.06 1.639-0.111 2.388-0.181 0.747-0.449 1.262-0.805 1.543z" fill="#ba3b0a" data-fill-palette-color="primary"></path><path d="M85.086 32.262c-0.28 0.146-0.573 0.112-0.878-0.101-0.305-0.213-0.595-0.585-0.871-1.116v0c-0.194-0.372-0.328-0.674-0.403-0.906v0l-2.267-6.563-5.99 3.12 1.978 6.143c0.146 0.474 0.17 0.907 0.072 1.3v0l0.01 0.018c0.104-0.008 0.253-0.027 0.446-0.058 0.202-0.028 0.386-0.085 0.551-0.171v0c0.201-0.105 0.382-0.257 0.541-0.456 0.166-0.203 0.282-0.321 0.35-0.356v0c0.098-0.051 0.176-0.018 0.236 0.097v0c0.079 0.152 0.071 0.382-0.025 0.688v0c-0.278 1.013-0.61 1.62-0.994 1.82v0c-0.152 0.079-0.462 0.155-0.928 0.227v0c-0.616 0.127-1.009 0.235-1.18 0.324v0c-0.25 0.13-0.468 0.337-0.654 0.62-0.195 0.28-0.32 0.434-0.375 0.462v0c-0.079 0.041-0.162-0.02-0.248-0.185v0c-0.098-0.189-0.146-0.377-0.143-0.565 0.006-0.197 0.057-0.448 0.154-0.754v0c0.212-0.575 0.336-0.97 0.372-1.182 0.04-0.207 0.024-0.474-0.045-0.802-0.076-0.325-0.259-0.907-0.55-1.748v0l-4.126-12.455c-0.085 0.044-0.319 0.147-0.701 0.307v0c-0.113 0.036-0.257 0.087-0.431 0.155-0.171 0.074-0.375 0.172-0.613 0.296v0c-0.97 0.505-1.52 1.183-1.65 2.033v0c-0.005 0.065-0.017 0.183-0.035 0.356-0.022 0.166-0.066 0.267-0.134 0.302v0c-0.079 0.041-0.157-0.011-0.233-0.158v0c-0.089-0.171-0.139-0.327-0.151-0.468v0c-0.182-0.796-0.102-1.528 0.241-2.194 0.343-0.667 0.916-1.21 1.721-1.629v0l0.837-0.401c0.485-0.214 0.871-0.396 1.158-0.545v0c0.299-0.156 0.608-0.336 0.928-0.541v0l0.507-0.299c0.168 0.889 0.355 1.641 0.558 2.255 0.204 0.615 0.328 0.988 0.374 1.119v0l1.552 4.633 6.037-3.143-1.424-4.386c-0.635-1.964-0.958-3.656-0.969-5.077-0.002-1.417 0.322-2.656 0.972-3.715 0.647-1.065 1.661-2.02 3.043-2.863v0c0.259-0.158 0.514-0.345 0.765-0.562v0c0.111-0.143 0.195-0.229 0.25-0.258v0c0.079-0.041 0.146-0.01 0.2 0.094v0c0.105 0.201 0.103 0.481-0.005 0.839-0.105 0.365-0.421 0.739-0.95 1.123v0c-0.979 0.68-1.668 1.396-2.068 2.147-0.397 0.741-0.549 1.646-0.458 2.715 0.085 1.072 0.413 2.459 0.982 4.162v0l4.203 12.403c0.101 0.327 0.191 0.567 0.271 0.719v0c0.089 0.171 0.178 0.268 0.267 0.291 0.093 0.029 0.197 0.014 0.313-0.046v0c0.201-0.105 0.365-0.26 0.491-0.465 0.126-0.205 0.252-0.468 0.379-0.79v0c0.124-0.297 0.22-0.463 0.287-0.499v0c0.098-0.051 0.189 0.006 0.274 0.171v0c0.159 0.305 0.151 0.789-0.022 1.453-0.174 0.664-0.441 1.303-0.803 1.918-0.359 0.606-0.691 0.988-0.996 1.147z" fill="#ba3b0a" data-fill-palette-color="primary"></path><path d="M92.231 28.494c-0.896 0.351-1.676-0.322-2.341-2.018v0c-0.639-1.632-0.915-3.381-0.826-5.248 0.089-1.866 0.54-3.541 1.353-5.026 0.814-1.485 1.921-2.502 3.324-3.052v0c0.723-0.283 1.393-0.413 2.007-0.388v0c0.121 0.986 0.222 1.707 0.305 2.163v0l0.556 3.06c0.385 2.433 0.695 4.102 0.931 5.007v0c0.028 0.129 0.077 0.28 0.144 0.453v0c0.153 0.39 0.345 0.541 0.575 0.45v0c0.282-0.11 0.473-0.396 0.573-0.856 0.103-0.454 0.184-1.076 0.244-1.867v0c0.012-0.027 0.02-0.089 0.026-0.188 0.01-0.107 0.05-0.175 0.12-0.202v0c0.109-0.043 0.205 0.042 0.287 0.253v0l0.108 0.445c0.104 0.624 0.078 1.291-0.079 2.003-0.157 0.711-0.403 1.328-0.737 1.85-0.328 0.52-0.678 0.852-1.049 0.998v0c-0.615 0.241-1.117-0.138-1.509-1.137v0c-0.15-0.384-0.26-0.795-0.328-1.234v0l-0.448-2.471-0.028 0.011c-0.266 1.81-0.695 3.362-1.288 4.658-0.595 1.289-1.235 2.068-1.92 2.336zM92.627 25.858c0.486-0.191 0.899-0.795 1.238-1.815 0.342-1.012 0.575-2.178 0.702-3.497 0.117-1.323 0.109-2.464-0.024-3.424v0l-0.239-1.856c-0.66-0.14-1.282-0.096-1.864 0.133v0c-0.755 0.296-1.274 0.998-1.557 2.104-0.28 1.114-0.354 2.357-0.222 3.731 0.132 1.373 0.395 2.563 0.788 3.568v0c0.171 0.435 0.346 0.743 0.528 0.923 0.184 0.186 0.4 0.231 0.65 0.133z" fill="#ba3b0a" data-fill-palette-color="primary"></path><path d="M107.095 23.35c-0.166 0.045-0.289 0.036-0.371-0.028-0.088-0.062-0.182-0.225-0.282-0.489-0.1-0.265-0.203-0.59-0.307-0.975v0c-0.351-1.294-0.814-2.749-1.389-4.367v0c-0.674-1.826-1.227-3.09-1.661-3.791-0.435-0.708-0.828-1.015-1.179-0.919v0c-0.232 0.063-0.375 0.219-0.428 0.469-0.047 0.248-0.08 0.688-0.101 1.32v0c0.012 0.332-0.055 0.517-0.201 0.557v0c-0.146 0.04-0.257-0.08-0.333-0.359v0c-0.123-0.451-0.16-0.997-0.113-1.636 0.056-0.635 0.211-1.215 0.468-1.74 0.258-0.519 0.623-0.842 1.093-0.971v0c0.836-0.227 1.584 0.207 2.246 1.303 0.659 1.089 1.32 2.566 1.983 4.431v0c0.412 1.177 0.702 2.007 0.868 2.489 0.16 0.484 0.264 0.79 0.314 0.919v0c0.103 0.3 0.227 0.43 0.373 0.39v0c0.345-0.094 0.685-0.599 1.02-1.516 0.34-0.926 0.573-1.958 0.698-3.096 0.132-1.14 0.1-2.072-0.097-2.795v0c-0.088-0.325-0.2-0.58-0.335-0.764-0.14-0.176-0.31-0.343-0.511-0.502-0.2-0.159-0.314-0.292-0.343-0.399v0c-0.076-0.279 0.034-0.74 0.33-1.382 0.294-0.65 0.56-1.007 0.799-1.072v0c0.179-0.049 0.395 0.064 0.647 0.337 0.246 0.275 0.441 0.678 0.585 1.209v0c0.326 1.201 0.332 2.834 0.016 4.9-0.315 2.066-0.831 3.944-1.547 5.635-0.712 1.682-1.459 2.629-2.242 2.842z" fill="#ba3b0a" data-fill-palette-color="primary"></path><path d="M118.615 20.685c-0.84 0.144-1.559-0.06-2.157-0.613-0.605-0.559-1.005-1.404-1.199-2.535v0c-0.236-1.375-0.16-2.902 0.228-4.58 0.394-1.686 1.019-3.143 1.875-4.372 0.863-1.23 1.823-1.935 2.879-2.116v0c0.962-0.165 1.544 0.338 1.746 1.51v0c0.163 0.949 0.045 1.925-0.355 2.928-0.4 1.003-1.01 1.935-1.832 2.794-0.815 0.859-1.746 1.57-2.793 2.134v0c0.172 1.003 0.46 1.7 0.861 2.091 0.401 0.385 0.916 0.523 1.547 0.414v0c0.664-0.114 1.24-0.433 1.729-0.956 0.482-0.522 0.853-1.186 1.113-1.991v0c0.041-0.126 0.082-0.23 0.123-0.315 0.041-0.084 0.11-0.134 0.205-0.15v0c0.149-0.026 0.243 0.073 0.281 0.297v0c0.086 0.501-0.057 1.168-0.431 1.999-0.374 0.825-0.905 1.575-1.59 2.251-0.694 0.67-1.437 1.074-2.23 1.21zM117.638 14.209c0.488-0.084 0.973-0.345 1.455-0.784 0.489-0.44 0.869-0.99 1.14-1.65 0.271-0.654 0.343-1.353 0.215-2.098v0c-0.15-0.874-0.534-1.258-1.151-1.152v0c-0.501 0.086-0.932 0.439-1.293 1.059-0.362 0.613-0.627 1.346-0.794 2.198-0.167 0.852-0.245 1.66-0.232 2.425v0c0.128 0.055 0.348 0.055 0.66 0.002z" fill="#ba3b0a" data-fill-palette-color="primary"></path><path d="M127.429 19.458c-0.171 0.012-0.261-0.037-0.268-0.147v0c-0.005-0.075 0.028-0.243 0.099-0.503 0.065-0.26 0.151-0.703 0.259-1.331v0c0.268-1.59 0.535-4.227 0.801-7.912v0c0.067-0.721 0.09-1.223 0.071-1.504v0c-0.017-0.24-0.083-0.356-0.2-0.348v0c-0.315 0.022-0.753 0.618-1.312 1.787v0c-0.084 0.178-0.16 0.328-0.227 0.45-0.067 0.129-0.122 0.222-0.167 0.281-0.044 0.065-0.093 0.1-0.147 0.103v0c-0.151 0.011-0.233-0.08-0.247-0.272v0c-0.026-0.377 0.142-0.926 0.505-1.648 0.37-0.722 0.817-1.37 1.343-1.944 0.525-0.581 1.013-0.887 1.466-0.919v0c0.302-0.021 0.527 0.098 0.676 0.356 0.148 0.252 0.237 0.576 0.264 0.974v0c0.043 0.617-0.023 1.838-0.199 3.663v0l0.031-0.002c0.758-1.583 1.623-2.866 2.594-3.851 0.972-0.984 1.832-1.503 2.579-1.555v0c0.789-0.055 1.222 0.473 1.3 1.584v0c0.029 0.411-0.005 1.113-0.101 2.105v0l-0.412 3.43c-0.307 2.42-0.449 3.787-0.427 4.103v0c0.01 0.137 0.052 0.255 0.128 0.352 0.069 0.099 0.179 0.143 0.33 0.133v0c0.507-0.035 1.037-0.848 1.587-2.437v0c0.041-0.21 0.129-0.319 0.267-0.329v0c0.11-0.008 0.172 0.102 0.188 0.328v0c0.011 0.165 0.012 0.316 0.001 0.455v0c-0.083 0.681-0.31 1.334-0.68 1.96-0.377 0.619-0.807 1.121-1.291 1.506-0.484 0.378-0.931 0.582-1.342 0.611v0c-0.391 0.027-0.67-0.119-0.837-0.438-0.16-0.32-0.254-0.675-0.281-1.066v0c-0.059-0.844 0.068-2.382 0.38-4.616v0c0.303-2.178 0.443-3.68 0.42-4.506v0c-0.003-0.337-0.044-0.576-0.122-0.715-0.072-0.14-0.231-0.201-0.478-0.183v0c-0.583 0.041-1.18 0.472-1.792 1.293-0.612 0.815-1.142 1.799-1.592 2.954-0.45 1.155-0.725 2.201-0.825 3.138v0l-0.282 2.48c-0.083 0.495-0.352 0.976-0.809 1.442-0.457 0.466-0.874 0.712-1.251 0.738z" fill="#ba3b0a" data-fill-palette-color="primary"></path><path d="M150.713 18.971c-0.116-0.014-0.167-0.085-0.151-0.215v0c0.026-0.225 0.168-0.492 0.426-0.801 0.252-0.317 0.534-0.512 0.847-0.586v0l0.829-0.245c0.275-0.099 0.484-0.317 0.626-0.654 0.15-0.335 0.329-0.917 0.537-1.743v0l3.444-13.084c-0.376-0.044-0.735-0.076-1.079-0.095v0c-0.393-0.011-0.755 0.002-1.084 0.039-0.323 0.038-0.522 0.053-0.597 0.044v0c-0.116-0.014-0.168-0.075-0.155-0.184v0c0.018-0.15 0.126-0.338 0.326-0.564v0c0.267-0.329 0.561-0.564 0.882-0.707 0.321-0.142 0.698-0.198 1.131-0.168v0l3.963 0.381c0.508 0.039 0.892 0.035 1.154-0.01 0.261-0.045 0.43-0.064 0.504-0.055v0c0.13 0.015 0.188 0.081 0.175 0.197v0c-0.018 0.15-0.115 0.329-0.292 0.537v0c-0.246 0.331-0.452 0.553-0.618 0.665-0.165 0.112-0.438 0.163-0.817 0.153v0l-1.383-0.069-3.881 14.684c-0.175 0.492-0.396 0.843-0.664 1.053v0l-0.003 0.031c0.18 0.063 0.419 0.143 0.719 0.24 0.306 0.105 0.579 0.172 0.818 0.2v0c0.3 0.035 0.567 0.008 0.798-0.083 0.224-0.084 0.357-0.124 0.399-0.119v0c0.089 0.01 0.127 0.07 0.113 0.179v0c-0.022 0.191-0.16 0.393-0.413 0.606v0c-0.757 0.673-1.453 0.972-2.089 0.897v0c-0.225-0.026-0.566-0.132-1.021-0.317v0c-0.69-0.254-1.165-0.396-1.425-0.427v0c-0.355-0.042-0.763-0.013-1.224 0.085-0.455 0.099-0.719 0.144-0.795 0.135z" fill="#ba3b0a" data-fill-palette-color="primary"></path><path d="M161.731 20.751c-0.168-0.036-0.241-0.108-0.217-0.215v0c0.016-0.074 0.094-0.226 0.234-0.456 0.134-0.231 0.339-0.634 0.617-1.207v0c0.698-1.454 1.684-3.914 2.96-7.381v0c0.264-0.675 0.425-1.15 0.484-1.426v0c0.05-0.235 0.018-0.365-0.095-0.39v0c-0.309-0.066-0.894 0.385-1.756 1.354v0c-0.13 0.148-0.244 0.271-0.343 0.37-0.1 0.105-0.179 0.18-0.237 0.223-0.06 0.05-0.117 0.07-0.171 0.059v0c-0.148-0.032-0.202-0.142-0.161-0.33v0c0.079-0.37 0.393-0.851 0.941-1.444 0.555-0.591 1.165-1.09 1.828-1.496 0.665-0.413 1.219-0.572 1.663-0.478v0c0.296 0.063 0.48 0.24 0.551 0.529 0.073 0.283 0.068 0.619-0.015 1.009v0c-0.129 0.605-0.531 1.76-1.205 3.465v0l0.03 0.007c1.166-1.311 2.353-2.305 3.559-2.983 1.206-0.677 2.176-0.937 2.909-0.78v0c0.773 0.165 1.043 0.793 0.81 1.882v0c-0.086 0.403-0.313 1.068-0.68 1.995v0l-1.345 3.182c-0.964 2.24-1.479 3.515-1.545 3.824v0c-0.029 0.134-0.02 0.259 0.025 0.375 0.039 0.114 0.132 0.186 0.28 0.218v0c0.497 0.106 1.231-0.528 2.2-1.903v0c0.097-0.19 0.213-0.271 0.347-0.242v0c0.108 0.023 0.138 0.145 0.09 0.368v0c-0.035 0.161-0.076 0.307-0.125 0.437v0c-0.269 0.632-0.667 1.197-1.196 1.695-0.534 0.49-1.086 0.854-1.657 1.09-0.569 0.23-1.056 0.301-1.459 0.215v0c-0.383-0.082-0.611-0.299-0.683-0.652-0.065-0.351-0.057-0.719 0.025-1.102v0c0.177-0.827 0.725-2.27 1.643-4.33v0c0.894-2.009 1.444-3.414 1.65-4.214v0c0.091-0.325 0.117-0.565 0.081-0.721-0.03-0.154-0.166-0.257-0.409-0.309v0c-0.571-0.122-1.264 0.127-2.079 0.747-0.813 0.613-1.596 1.413-2.348 2.398-0.752 0.985-1.306 1.914-1.661 2.787v0l-0.957 2.306c-0.216 0.453-0.609 0.84-1.176 1.161-0.568 0.321-1.037 0.443-1.407 0.364z" fill="#ba3b0a" data-fill-palette-color="primary"></path><path d="M175.753 24.135c-0.163-0.055-0.226-0.135-0.191-0.24v0c0.024-0.072 0.12-0.213 0.286-0.425 0.16-0.214 0.412-0.59 0.755-1.127v0c0.864-1.362 2.133-3.689 3.807-6.982v0c0.341-0.639 0.557-1.092 0.648-1.359v0c0.078-0.228 0.061-0.36-0.049-0.398v0c-0.299-0.102-0.933 0.277-1.903 1.138v0c-0.147 0.132-0.274 0.241-0.384 0.327-0.112 0.093-0.199 0.157-0.262 0.194-0.066 0.043-0.124 0.056-0.176 0.038v0c-0.143-0.049-0.184-0.164-0.122-0.346v0c0.122-0.358 0.49-0.799 1.105-1.324 0.621-0.522 1.285-0.946 1.991-1.271 0.709-0.332 1.278-0.425 1.708-0.279v0c0.286 0.098 0.448 0.294 0.485 0.591 0.039 0.289-0.005 0.623-0.134 1v0c-0.2 0.586-0.734 1.685-1.604 3.299v0l0.029 0.01c1.312-1.165 2.607-2.013 3.885-2.544 1.278-0.531 2.271-0.675 2.98-0.433v0c0.748 0.255 0.943 0.91 0.584 1.964v0c-0.133 0.39-0.436 1.024-0.91 1.902v0l-1.709 3.001c-1.221 2.111-1.882 3.317-1.984 3.616v0c-0.044 0.13-0.051 0.255-0.019 0.375 0.025 0.118 0.11 0.201 0.253 0.25v0c0.482 0.164 1.284-0.379 2.407-1.631v0c0.119-0.177 0.243-0.244 0.374-0.199v0c0.104 0.035 0.12 0.161 0.046 0.375v0c-0.053 0.156-0.112 0.296-0.176 0.419v0c-0.341 0.596-0.803 1.11-1.386 1.543-0.588 0.424-1.179 0.72-1.774 0.889-0.592 0.161-1.084 0.175-1.474 0.042v0c-0.371-0.126-0.571-0.369-0.602-0.728-0.024-0.357 0.028-0.721 0.154-1.092v0c0.273-0.8 0.986-2.17 2.141-4.107v0c1.124-1.89 1.835-3.22 2.134-3.99v0c0.128-0.312 0.183-0.548 0.164-0.707-0.012-0.157-0.135-0.275-0.369-0.355v0c-0.553-0.189-1.271-0.023-2.153 0.498-0.88 0.514-1.751 1.215-2.613 2.105-0.863 0.89-1.522 1.747-1.977 2.573v0l-1.221 2.177c-0.268 0.424-0.703 0.763-1.305 1.015-0.602 0.252-1.082 0.318-1.439 0.196z" fill="#ba3b0a" data-fill-palette-color="primary"></path><path d="M199.933 34.687c-0.928-0.578-1.527-1.371-1.798-2.382-0.27-1.01-0.033-2.114 0.712-3.31v0c0.777-1.249 1.902-2.197 3.374-2.844 1.469-0.656 3.108-0.941 4.915-0.853v0c0.394-1.31 0.811-2.317 1.25-3.023v0c0.458-0.735 1.066-1.336 1.826-1.803 0.758-0.476 1.563-0.736 2.417-0.78 0.847-0.048 1.639 0.158 2.374 0.616v0c0.817 0.509 1.223 1.06 1.216 1.655-0.006 0.595-0.164 1.141-0.472 1.638v0c-0.995 1.599-3.248 2.461-6.758 2.584v0c-0.143 0.373-0.322 1.103-0.538 2.191v0c0.984-0.254 1.905-0.264 2.763-0.029 0.864 0.238 1.921 0.746 3.17 1.523v0l1.778 1.143c0.881 0.548 1.719 0.783 2.515 0.703 0.799-0.086 1.421-0.488 1.868-1.206v0c0.178-0.286 0.28-0.534 0.305-0.745 0.028-0.201 0.035-0.395 0.022-0.582-0.019-0.19-0.014-0.309 0.015-0.355v0c0.102-0.163 0.462-0.352 1.081-0.566 0.625-0.21 1.001-0.276 1.13-0.196v0c0.012 0.007 0.024 0.059 0.036 0.156v0c-0.06 0.343-0.135 0.64-0.227 0.892-0.095 0.257-0.241 0.543-0.436 0.857v0c-0.618 0.992-1.409 1.71-2.374 2.155-0.965 0.444-2.031 0.59-3.199 0.438-1.168-0.152-2.345-0.597-3.53-1.334v0l-0.123-0.077c-0.85 0.832-1.784 1.578-2.803 2.24-1.025 0.658-2.072 1.156-3.14 1.495v0c-0.104 1.377 0.084 2.214 0.562 2.512v0c0.368 0.229 0.982 0.153 1.841-0.227v0c0.036-0.018 0.102-0.046 0.198-0.083 0.106-0.04 0.182-0.045 0.228-0.016v0c0.128 0.08 0.138 0.207 0.03 0.382v0l-0.233 0.257c-0.246 0.252-0.611 0.474-1.095 0.666-0.488 0.198-0.986 0.322-1.493 0.371-0.508 0.048-0.922-0.027-1.244-0.228v0c-0.321-0.2-0.548-0.544-0.682-1.031-0.136-0.497-0.193-1.173-0.172-2.027v0c-1.077 0.156-2.07 0.165-2.981 0.028-0.91-0.137-1.687-0.406-2.328-0.805zM209.173 25.401c1.101-0.052 2.046-0.249 2.835-0.593 0.785-0.337 1.368-0.813 1.749-1.425v0c0.345-0.554 0.503-1.075 0.475-1.563-0.029-0.487-0.276-0.876-0.744-1.167v0c-0.496-0.309-0.989-0.336-1.479-0.083-0.486 0.248-0.944 0.716-1.372 1.405v0c-0.479 0.77-0.967 1.912-1.464 3.426zM201.932 34.206c0.829 0.516 1.947 0.657 3.356 0.424v0c0.144-1.441 0.357-2.831 0.639-4.169 0.273-1.336 0.623-2.79 1.051-4.362v0c-1.151-0.012-2.214 0.266-3.191 0.832-0.974 0.576-1.773 1.366-2.398 2.37v0c-0.708 1.138-0.975 2.126-0.8 2.964 0.171 0.844 0.619 1.491 1.343 1.941zM207.37 33.959c0.81-0.403 1.621-0.939 2.433-1.608 0.822-0.671 1.523-1.348 2.103-2.031v0l-0.123-0.077c-0.718-0.447-1.362-0.759-1.932-0.935-0.564-0.173-1.089-0.208-1.574-0.105v0c-0.571 2.479-0.873 4.064-0.907 4.756z" fill="#ba3b0a" data-fill-palette-color="primary"></path><path d="M223.649 51.82c-0.616-0.589-1.021-1.215-1.215-1.877-0.195-0.672-0.235-1.291-0.121-1.857 0.114-0.576 0.308-1.033 0.582-1.369v0c0.257-0.268 0.597-0.475 1.023-0.621 0.42-0.14 0.824-0.21 1.213-0.208 0.384 0.006 0.631 0.062 0.74 0.166v0c0.07 0.067 0.066 0.14-0.009 0.219v0c-0.648 0.816-1.101 1.697-1.358 2.64-0.247 0.944 0.072 1.839 0.956 2.685v0c0.705 0.675 1.476 0.999 2.312 0.971 0.84-0.033 1.631-0.437 2.373-1.212v0c0.442-0.462 0.766-0.975 0.973-1.538 0.197-0.563 0.327-1.286 0.39-2.167v0l0.263-4.287c0.057-0.497 0.171-0.954 0.342-1.372 0.171-0.427 0.465-0.859 0.884-1.296v0c0.675-0.705 1.476-1.214 2.402-1.525 0.927-0.312 1.888-0.362 2.885-0.151 0.997 0.212 1.91 0.714 2.739 1.508v0c0.68 0.651 1.106 1.325 1.277 2.022 0.166 0.692 0.002 1.296-0.493 1.812v0c-0.38 0.397-0.979 0.7-1.796 0.907v0c-0.319 0.085-0.553 0.056-0.702-0.087v0c-0.109-0.105-0.131-0.226-0.066-0.363 0.06-0.133 0.209-0.347 0.445-0.644v0c0.996-1.13 0.931-2.235-0.197-3.314v0c-0.68-0.651-1.378-0.986-2.093-1.005-0.705-0.019-1.346 0.273-1.921 0.874v0c-0.575 0.601-0.904 1.447-0.987 2.538v0l-0.209 4.14c-0.106 1.801-0.68 3.246-1.721 4.333v0c-0.756 0.79-1.685 1.318-2.788 1.585-1.098 0.262-2.204 0.26-3.319-0.007-1.11-0.272-2.045-0.772-2.804-1.5z" fill="#ba3b0a" data-fill-palette-color="primary"></path><path d="M232.114 60.51c-0.51-0.604-0.314-1.287 0.589-2.05v0c0.446-0.377 1.139-0.841 2.078-1.391v0l5.07-3.028c0.569-0.381 0.887-0.601 0.955-0.659v0c0.215-0.182 0.274-0.331 0.177-0.446v0c-0.28-0.331-1.038-0.356-2.277-0.074v0c-0.08 0.023-0.215 0.06-0.405 0.112-0.194 0.047-0.327 0.065-0.399 0.054-0.072-0.011-0.126-0.037-0.162-0.079v0c-0.027-0.032-0.025-0.083 0.005-0.153 0.026-0.076 0.073-0.143 0.142-0.201v0c0.289-0.244 0.82-0.441 1.593-0.59 0.774-0.15 1.547-0.177 2.32-0.083 0.768 0.089 1.316 0.328 1.644 0.716v0c0.195 0.231 0.253 0.497 0.175 0.798-0.079 0.301-0.284 0.591-0.615 0.87v0c-0.221 0.186-0.402 0.313-0.544 0.379v0l-7.216 4.369c-0.226 0.137-0.368 0.23-0.426 0.279v0c-0.305 0.257-0.359 0.502-0.164 0.732v0c0.399 0.473 1.154 0.717 2.265 0.732 1.107 0.01 2.286-0.149 3.538-0.478 1.252-0.329 2.272-0.714 3.061-1.155v0l1.828-1.032c0.612-0.319 1.204-0.418 1.774-0.297 0.576 0.117 0.992 0.327 1.249 0.632v0c0.098 0.116 0.11 0.204 0.036 0.267v0c-0.042 0.035-0.15 0.078-0.325 0.126-0.17 0.044-0.354 0.124-0.554 0.239v0c-1.061 0.555-3.466 1.911-7.213 4.069v0l-0.807 0.452c-0.588 0.326-0.94 0.538-1.056 0.636v0c-0.2 0.169-0.244 0.319-0.133 0.449v0c0.195 0.231 0.594 0.33 1.197 0.299 0.603-0.032 1.193-0.144 1.77-0.335v0c0.233-0.044 0.374-0.037 0.423 0.021v0c0.071 0.084 0.041 0.181-0.091 0.293v0c-0.158 0.133-0.305 0.235-0.443 0.306v0c-0.599 0.335-1.25 0.539-1.954 0.612-0.704 0.073-1.35 0.038-1.937-0.105-0.588-0.142-1.015-0.371-1.282-0.685v0c-0.475-0.562-0.255-1.207 0.661-1.935v0c0.415-0.297 1.014-0.654 1.795-1.071v0l1.221-0.695-0.02-0.024c-1.827 0.266-3.432 0.316-4.813 0.152-1.381-0.165-2.292-0.507-2.73-1.028z" fill="#ba3b0a" data-fill-palette-color="primary"></path><path d="M254.489 64.286c-0.106-0.152-0.079-0.276 0.082-0.37v0l1.821-0.85c0.507-0.235 0.967-0.307 1.38-0.217 0.414 0.09 0.756 0.329 1.026 0.719v0l0.065 0.093c0.063 0.09 0.088 0.157 0.075 0.199-0.013 0.042-0.071 0.091-0.175 0.146v0l-1.777 0.857c-0.478 0.24-0.936 0.315-1.375 0.226-0.438-0.089-0.791-0.326-1.057-0.71v0zM240.931 71.663c-0.341-0.491-0.156-0.984 0.556-1.478v0c0.356-0.247 0.797-0.486 1.322-0.717v0l6.978-3.186c0.444-0.216 0.711-0.356 0.801-0.418v0c0.232-0.161 0.298-0.312 0.201-0.453v0c-0.129-0.186-0.433-0.31-0.911-0.372-0.474-0.056-1.135-0.02-1.983 0.109v0c-0.23 0.067-0.376 0.056-0.439-0.035v0c-0.067-0.096-0.021-0.199 0.137-0.309v0c0.367-0.255 0.957-0.417 1.771-0.488 0.813-0.071 1.6-0.01 2.36 0.182 0.77 0.193 1.3 0.499 1.591 0.917v0c0.333 0.48 0.158 0.957-0.526 1.432v0c-0.328 0.227-0.787 0.475-1.379 0.744v0l-7.544 3.454-0.332 0.155c-0.175 0.122-0.214 0.253-0.116 0.394v0c0.129 0.186 0.437 0.304 0.922 0.351 0.484 0.058 1.144 0.026 1.981-0.094v0c0.22-0.044 0.358-0.027 0.413 0.052v0c0.067 0.096-0.002 0.215-0.205 0.356v0c-0.356 0.247-0.932 0.4-1.728 0.459-0.796 0.059-1.572-0.005-2.329-0.191-0.757-0.186-1.27-0.474-1.541-0.864z" fill="#ba3b0a" data-fill-palette-color="primary"></path><path d="M245.93 79.564c-0.285-0.487-0.318-0.925-0.1-1.315 0.218-0.39 0.612-0.752 1.181-1.085v0c0.421-0.246 0.895-0.471 1.421-0.676 0.522-0.21 0.836-0.334 0.941-0.371v0l6.859-2.672-1.441-2.466c-0.045-0.077-0.029-0.138 0.048-0.184v0c0.166-0.097 0.502-0.054 1.006 0.129 0.511 0.179 0.815 0.352 0.912 0.518v0l0.854 1.46 1.659-0.636c0.578-0.25 1.206-0.279 1.885-0.087 0.678 0.193 1.146 0.509 1.402 0.948v0c0.045 0.077 0.026 0.14-0.057 0.189v0c-0.065 0.038-0.297 0.078-0.694 0.12-0.407 0.039-0.808 0.13-1.203 0.272v0l-2.05 0.805 1.4 2.395c0.056 0.095 0.036 0.17-0.059 0.225v0c-0.131 0.076-0.461 0.015-0.992-0.184-0.534-0.205-0.834-0.364-0.9-0.477v0l-0.796-1.362-6.811 2.632c-0.123 0.048-0.425 0.165-0.906 0.35-0.481 0.186-0.846 0.351-1.095 0.497v0c-0.534 0.312-0.697 0.646-0.489 1.003v0c0.153 0.261 0.442 0.463 0.867 0.604 0.423 0.151 0.929 0.206 1.517 0.164v0c0.04 0 0.085 0.002 0.135 0.005 0.044 0.006 0.074 0.024 0.091 0.054v0c0.049 0.083-0.031 0.185-0.239 0.307v0c-0.326 0.191-0.792 0.272-1.398 0.244-0.606-0.028-1.188-0.166-1.746-0.413-0.562-0.253-0.963-0.584-1.202-0.993z" fill="#ba3b0a" data-fill-palette-color="primary"></path><path d="M250.356 87.846c-0.369-0.768-0.37-1.516-0.002-2.241 0.371-0.735 1.074-1.352 2.109-1.849v0c1.258-0.605 2.747-0.95 4.467-1.038 1.729-0.084 3.302 0.117 4.719 0.604 1.419 0.493 2.361 1.222 2.825 2.189v0c0.423 0.88 0.098 1.577-0.973 2.092v0c-0.867 0.417-1.838 0.571-2.913 0.462-1.075-0.109-2.138-0.441-3.19-0.995-1.049-0.548-1.988-1.249-2.818-2.101v0c-0.917 0.441-1.509 0.908-1.775 1.402-0.26 0.491-0.251 1.025 0.026 1.601v0c0.292 0.607 0.757 1.074 1.394 1.401 0.635 0.32 1.374 0.495 2.22 0.524v0c0.132 0.005 0.244 0.016 0.336 0.032 0.092 0.017 0.159 0.069 0.201 0.156v0c0.066 0.136-0.004 0.254-0.209 0.352v0c-0.459 0.22-1.139 0.265-2.04 0.134-0.896-0.134-1.763-0.438-2.601-0.912-0.835-0.483-1.427-1.088-1.776-1.813zM256.316 85.13c0.214 0.446 0.599 0.841 1.153 1.185 0.557 0.35 1.19 0.564 1.9 0.643 0.703 0.082 1.395-0.041 2.077-0.369v0c0.799-0.384 1.063-0.858 0.792-1.422v0c-0.22-0.459-0.678-0.776-1.374-0.953-0.689-0.18-1.466-0.233-2.331-0.161-0.865 0.073-1.664 0.22-2.396 0.442v0c-0.018 0.138 0.042 0.35 0.179 0.635z" fill="#ba3b0a" data-fill-palette-color="primary"></path><path d="M254.234 96.666c-0.206-0.547-0.233-1.069-0.082-1.566 0.155-0.506 0.457-0.914 0.906-1.222v0c0.123-0.083 0.367-0.108 0.732-0.077 0.365 0.032 0.745 0.117 1.142 0.254v0c0.214 0.081 0.337 0.164 0.368 0.247v0c0.034 0.09-0.01 0.187-0.133 0.292v0c-1.037 0.992-1.379 1.958-1.026 2.898v0c0.179 0.476 0.464 0.795 0.855 0.956 0.394 0.168 0.838 0.159 1.334-0.027v0c0.669-0.252 1.392-0.957 2.169-2.115v0l0.581-0.857c0.439-0.65 0.82-1.131 1.143-1.444 0.33-0.315 0.713-0.555 1.151-0.719v0c0.708-0.266 1.413-0.314 2.116-0.145 0.709 0.167 1.344 0.497 1.904 0.992 0.56 0.494 0.966 1.076 1.217 1.746v0c0.479 1.274 0.284 2.075-0.584 2.401v0c-0.315 0.119-0.674 0.121-1.077 0.008v0c-0.258-0.042-0.404-0.109-0.438-0.199v0c-0.039-0.103 0.031-0.239 0.209-0.409v0c0.262-0.319 0.415-0.644 0.46-0.977 0.046-0.326-0.01-0.701-0.17-1.126v0c-0.186-0.496-0.467-0.842-0.842-1.039-0.378-0.203-0.769-0.229-1.175-0.076v0c-0.232 0.087-0.464 0.259-0.698 0.516-0.232 0.263-0.568 0.717-1.009 1.36v0l-0.562 0.85c-0.464 0.74-0.894 1.294-1.292 1.664-0.391 0.367-0.844 0.648-1.358 0.841v0c-0.65 0.244-1.377 0.275-2.18 0.092-0.801-0.176-1.537-0.542-2.208-1.098-0.671-0.556-1.156-1.229-1.453-2.021z" fill="#ba3b0a" data-fill-palette-color="primary"></path><path d="M9.604 184.844c-0.499-1.558-0.314-2.942 0.554-4.151 0.869-1.209 2.432-2.176 4.692-2.899v0c2.547-0.816 4.919-1.027 7.117-0.634 2.191 0.395 4.021 1.185 5.49 2.368 1.462 1.185 2.423 2.494 2.882 3.928v0c0.3 0.936 0.38 1.817 0.239 2.641-0.14 0.825-0.577 1.354-1.31 1.589v0c-0.524 0.168-1.166 0.146-1.926-0.065v0c-0.178-0.059-0.307-0.115-0.39-0.168-0.089-0.051-0.151-0.132-0.186-0.244v0c-0.04-0.124-0.009-0.232 0.092-0.321 0.101-0.09 0.227-0.17 0.378-0.241 0.157-0.072 0.269-0.129 0.334-0.172v0c0.575-0.3 0.966-0.735 1.173-1.307 0.2-0.569 0.168-1.267-0.095-2.091v0c-0.465-1.453-1.404-2.492-2.817-3.115-1.421-0.628-3.016-0.918-4.784-0.872-1.764 0.038-3.408 0.301-4.934 0.789v0c-1.742 0.558-2.983 1.313-3.725 2.265-0.75 0.948-0.936 2.014-0.556 3.2v0c0.31 0.969 0.917 1.782 1.82 2.438 0.901 0.65 2.026 1.073 3.374 1.269v0c0.239 0.046 0.375 0.122 0.408 0.227v0c0.029 0.092-0.057 0.17-0.26 0.235v0c-0.105 0.034-0.213 0.057-0.324 0.071-0.116 0.023-0.203 0.032-0.261 0.029v0c-1.035 0.036-2.03-0.14-2.985-0.527-0.961-0.385-1.791-0.95-2.491-1.693-0.702-0.75-1.205-1.599-1.509-2.549z" fill="#ba3b0a" data-fill-palette-color="primary"></path><path d="M13.687 196.237c-0.031-0.069-0.044-0.131-0.038-0.186 0.005-0.055 0.024-0.09 0.055-0.104v0c0.056-0.025 0.192-0.026 0.406-0.001 0.217 0.031 0.494 0.001 0.83-0.089v0c0.389-0.091 0.745-0.179 1.068-0.263 0.324-0.085 0.627-0.156 0.91-0.215v0c2.55-0.629 4.325-1.08 5.325-1.354 1.002-0.268 1.716-0.508 2.14-0.721v0c0.226-0.101 0.382-0.19 0.469-0.266 0.084-0.083 0.099-0.183 0.045-0.302v0c-0.07-0.157-0.287-0.297-0.651-0.421-0.367-0.13-0.768-0.218-1.203-0.264v0c-0.19-0.02-0.357-0.04-0.5-0.058-0.144-0.018-0.251-0.038-0.321-0.06-0.07-0.021-0.116-0.057-0.138-0.108v0c-0.031-0.069-0.028-0.13 0.007-0.184 0.033-0.06 0.094-0.11 0.182-0.149v0c0.326-0.146 0.864-0.164 1.614-0.055 0.749 0.109 1.467 0.315 2.152 0.618 0.686 0.303 1.117 0.653 1.293 1.049v0c0.146 0.326 0.115 0.611-0.092 0.854-0.198 0.247-0.57 0.492-1.116 0.737v0c-0.759 0.34-1.855 0.634-3.288 0.883v0l0.021 0.047c3.845 0.245 6.08 1.065 6.703 2.458v0c0.16 0.358 0.185 0.682 0.074 0.973-0.107 0.282-0.343 0.504-0.707 0.666v0c-0.377 0.168-0.799 0.26-1.268 0.273-0.468 0.014-0.886-0.037-1.253-0.15-0.361-0.117-0.584-0.27-0.668-0.458v0c-0.053-0.119 0.005-0.198 0.176-0.237v0c0.264-0.05 0.465-0.106 0.603-0.168v0c0.414-0.185 0.52-0.504 0.318-0.956v0c-0.239-0.533-0.788-0.928-1.648-1.183-0.854-0.258-1.819-0.387-2.896-0.388-1.071-0.003-2.012 0.083-2.822 0.257v0c-0.883 0.147-1.766 0.387-2.649 0.722v0c-0.343 0.108-0.743 0.107-1.2-0.006-0.453-0.121-0.869-0.3-1.246-0.538-0.374-0.247-0.603-0.464-0.687-0.653z" fill="#ba3b0a" data-fill-palette-color="primary"></path><path d="M9.992 213.82c-0.373-0.634-0.515-1.273-0.424-1.917 0.091-0.644 0.345-1.229 0.762-1.754 0.407-0.527 0.895-0.959 1.464-1.294v0c0.539-0.318 1.023-0.471 1.452-0.46 0.429 0.01 0.769 0.093 1.02 0.248 0.249 0.165 0.406 0.303 0.473 0.416v0c0.049 0.083-0.01 0.173-0.176 0.271v0c-2.529 1.49-3.315 3.047-2.358 4.67v0c0.677 1.149 1.898 1.643 3.661 1.481v0c0.676-0.071 1.483-0.239 2.42-0.505 0.934-0.271 2.369-0.734 4.305-1.388v0c0.783-0.27 1.227-0.424 1.332-0.461v0l3.787-1.251-0.015-0.027c-1.038 0.093-2.06 0.073-3.065-0.061-1.007-0.125-1.872-0.325-2.593-0.602-0.716-0.28-1.168-0.58-1.356-0.901v0c-0.213-0.361-0.09-0.769 0.368-1.222 0.465-0.457 1.091-0.91 1.88-1.36v0l6.201-3.391c0.141-0.059 0.324-0.155 0.549-0.287v0c0.261-0.154 0.439-0.298 0.534-0.435 0.099-0.13 0.099-0.278 0.002-0.443v0c-0.122-0.207-0.399-0.359-0.832-0.456-0.426-0.1-0.916-0.119-1.469-0.056v0c-0.334 0.069-0.534 0.048-0.601-0.065v0c-0.077-0.13-0.017-0.253 0.178-0.368v0c0.409-0.241 0.956-0.368 1.643-0.382 0.692-0.017 1.349 0.095 1.969 0.336 0.623 0.231 1.055 0.551 1.296 0.96v0c0.265 0.45 0.219 0.892-0.14 1.327-0.362 0.429-0.931 0.872-1.706 1.329v0l-0.798 0.434-4.141 2.153-0.824 0.45c-0.521 0.307-0.873 0.563-1.057 0.767-0.18 0.21-0.212 0.412-0.096 0.607v0c0.209 0.355 0.798 0.575 1.765 0.66 0.967 0.084 2.075 0.054 3.322-0.091 1.247-0.145 2.366-0.365 3.357-0.661v0l1.698-0.511c0.685-0.204 1.301-0.188 1.848 0.049 0.543 0.231 0.916 0.518 1.118 0.861v0c0.077 0.13 0.074 0.22-0.01 0.269v0c-0.083 0.049-0.216 0.087-0.398 0.115-0.174 0.03-0.303 0.047-0.39 0.05v0c-0.42 0.072-0.857 0.178-1.309 0.317-0.456 0.133-0.988 0.315-1.595 0.544v0l-7.679 2.791-1.533 0.568c-1.252 0.475-2.254 0.826-3.006 1.053-0.752 0.228-1.535 0.382-2.349 0.463-0.811 0.087-1.714 0.064-2.709-0.068v0c-1.41-0.159-2.615-0.477-3.616-0.957-1.007-0.476-1.726-1.081-2.159-1.815z" fill="#ba3b0a" data-fill-palette-color="primary"></path><path d="M27.704 221.659c-0.341-0.474-0.504-0.971-0.488-1.491 0.017-0.529 0.203-1.001 0.557-1.416v0c0.097-0.112 0.326-0.2 0.686-0.265 0.36-0.064 0.75-0.082 1.169-0.053v0c0.228 0.022 0.368 0.07 0.42 0.143v0c0.056 0.078 0.039 0.184-0.052 0.316v0c-0.742 1.228-0.821 2.25-0.235 3.065v0c0.297 0.413 0.655 0.646 1.075 0.701 0.424 0.059 0.851-0.065 1.281-0.375v0c0.58-0.417 1.094-1.287 1.541-2.607v0l0.338-0.98c0.254-0.742 0.496-1.305 0.727-1.691 0.236-0.39 0.544-0.721 0.923-0.995v0c0.614-0.442 1.282-0.672 2.005-0.692 0.728-0.024 1.427 0.13 2.097 0.461 0.67 0.331 1.214 0.787 1.631 1.368v0c0.795 1.105 0.815 1.929 0.062 2.47v0c-0.273 0.197-0.619 0.293-1.038 0.289v0c-0.26 0.026-0.419 0.001-0.475-0.078v0c-0.064-0.089-0.032-0.239 0.096-0.45v0c0.17-0.376 0.233-0.73 0.188-1.063-0.04-0.327-0.193-0.674-0.457-1.042v0c-0.309-0.43-0.67-0.691-1.084-0.783-0.417-0.098-0.802-0.02-1.154 0.233v0c-0.201 0.144-0.381 0.371-0.539 0.68-0.155 0.315-0.361 0.84-0.62 1.576v0l-0.32 0.967c-0.255 0.835-0.525 1.483-0.813 1.943-0.281 0.456-0.645 0.845-1.092 1.167v0c-0.564 0.405-1.257 0.625-2.08 0.657-0.819 0.039-1.625-0.123-2.418-0.483-0.793-0.361-1.437-0.885-1.931-1.572z" fill="#ba3b0a" data-fill-palette-color="primary"></path><path d="M35.706 232.013c-0.366-0.429-0.476-0.855-0.33-1.278 0.146-0.422 0.47-0.848 0.973-1.275v0c0.371-0.317 0.798-0.622 1.28-0.915 0.477-0.298 0.765-0.475 0.861-0.531v0l6.282-3.837-1.853-2.174c-0.058-0.068-0.053-0.131 0.015-0.189v0c0.146-0.125 0.484-0.142 1.014-0.051 0.534 0.086 0.864 0.203 0.989 0.349v0l1.097 1.288 1.521-0.918c0.525-0.348 1.139-0.487 1.84-0.416 0.701 0.071 1.217 0.299 1.548 0.686v0c0.058 0.068 0.05 0.133-0.023 0.196v0c-0.058 0.049-0.278 0.129-0.663 0.24-0.394 0.11-0.773 0.27-1.136 0.48v0l-1.876 1.152 1.799 2.111c0.071 0.084 0.065 0.161-0.018 0.233v0c-0.115 0.098-0.451 0.096-1.009-0.007-0.562-0.108-0.885-0.212-0.97-0.312v0l-1.024-1.201-6.242 3.789c-0.113 0.069-0.39 0.237-0.83 0.505-0.441 0.267-0.771 0.494-0.99 0.682v0c-0.471 0.401-0.573 0.759-0.305 1.073v0c0.196 0.23 0.516 0.378 0.959 0.442 0.443 0.074 0.95 0.039 1.523-0.106v0c0.04-0.007 0.084-0.013 0.133-0.018 0.044-0.001 0.077 0.011 0.099 0.037v0c0.062 0.073 0.002 0.188-0.181 0.344v0c-0.288 0.245-0.732 0.407-1.333 0.486-0.601 0.079-1.198 0.046-1.792-0.099-0.598-0.15-1.05-0.406-1.358-0.766z" fill="#ba3b0a" data-fill-palette-color="primary"></path><path d="M41.668 238.548c-0.686-0.675-0.391-1.662 0.886-2.961v0c1.229-1.25 2.713-2.216 4.452-2.897 1.739-0.681 3.453-0.954 5.141-0.818 1.688 0.136 3.069 0.732 4.143 1.787v0c0.554 0.545 0.945 1.103 1.174 1.674v0c-0.851 0.513-1.468 0.9-1.849 1.161v0l-2.566 1.758c-2.064 1.345-3.461 2.31-4.19 2.895v0c-0.106 0.079-0.224 0.184-0.354 0.317v0c-0.294 0.299-0.353 0.535-0.176 0.708v0c0.216 0.212 0.554 0.27 1.015 0.174 0.456-0.091 1.057-0.272 1.803-0.541v0c0.029 0 0.09-0.018 0.182-0.052 0.102-0.035 0.18-0.026 0.234 0.027v0c0.083 0.082 0.046 0.204-0.114 0.365v0l-0.362 0.281c-0.527 0.35-1.147 0.598-1.86 0.745-0.713 0.147-1.377 0.175-1.99 0.083-0.608-0.087-1.055-0.27-1.339-0.55v0c-0.471-0.463-0.33-1.076 0.421-1.841v0c0.289-0.294 0.62-0.562 0.992-0.804v0l2.073-1.418-0.022-0.022c-1.76 0.497-3.353 0.739-4.777 0.727-1.42-0.017-2.392-0.283-2.917-0.798zM44.236 237.833c0.373 0.366 1.093 0.496 2.162 0.389 1.064-0.102 2.223-0.364 3.479-0.788 1.255-0.434 2.294-0.907 3.116-1.42v0l1.596-0.977c-0.142-0.66-0.436-1.209-0.882-1.647v0c-0.579-0.569-1.431-0.756-2.558-0.561-1.131 0.199-2.296 0.64-3.496 1.321-1.2 0.681-2.178 1.407-2.934 2.176v0c-0.328 0.333-0.537 0.62-0.627 0.859-0.095 0.244-0.047 0.46 0.144 0.648z" fill="#ba3b0a" data-fill-palette-color="primary"></path><path d="M52.652 248.707c-0.281-0.222-0.376-0.516-0.287-0.884 0.088-0.377 0.296-0.774 0.624-1.189v0c0.222-0.281 0.513-0.589 0.875-0.925v0l8.215-7.703c1.902-1.765 3.505-3.018 4.808-3.758 1.307-0.746 2.465-1.119 3.474-1.12v0c0.578 0.001 1.109 0.088 1.594 0.261 0.49 0.168 1.21 0.47 2.162 0.906v0c0.428 0.224 0.712 0.352 0.853 0.385 0.137 0.038 0.221 0.07 0.253 0.095v0c0.102 0.081 0.107 0.181 0.013 0.299v0c-0.047 0.059-0.15 0.123-0.308 0.191-0.164 0.063-0.372 0.105-0.624 0.124v0c-0.277 0.018-0.512-0.006-0.706-0.071-0.184-0.067-0.385-0.173-0.602-0.319v0c-0.926-0.591-1.76-0.816-2.502-0.675v0c-1.375 0.254-3.114 1.364-5.219 3.329v0l-9.871 9.168c-0.097 0.09-0.203 0.207-0.318 0.353v0c-0.26 0.329-0.293 0.57-0.099 0.724v0c0.442 0.349 1.48 0.1 3.114-0.748v0c0.187-0.115 0.332-0.132 0.434-0.051v0c0.102 0.081 0.073 0.224-0.089 0.429v0c-0.384 0.486-0.97 0.872-1.758 1.161-0.798 0.289-1.581 0.438-2.349 0.445-0.769-0.003-1.331-0.145-1.687-0.427z" fill="#ba3b0a" data-fill-palette-color="primary"></path><path d="M78.485 265.09c-0.28-0.146-0.421-0.405-0.421-0.777 0-0.372 0.138-0.823 0.414-1.354v0c0.194-0.372 0.364-0.655 0.512-0.85v0l4.078-5.619-5.991-3.12-3.899 5.143c-0.305 0.392-0.646 0.66-1.023 0.804v0l-0.01 0.018c0.066 0.081 0.167 0.192 0.304 0.333 0.139 0.15 0.291 0.268 0.455 0.353v0c0.201 0.105 0.429 0.165 0.685 0.182 0.261 0.02 0.425 0.047 0.492 0.082v0c0.098 0.051 0.116 0.134 0.056 0.25v0c-0.079 0.152-0.272 0.277-0.579 0.373v0c-0.99 0.353-1.677 0.429-2.06 0.229v0c-0.152-0.079-0.392-0.289-0.719-0.63v0c-0.457-0.432-0.771-0.692-0.942-0.781v0c-0.25-0.13-0.544-0.19-0.882-0.181-0.341 0.001-0.539-0.014-0.595-0.042v0c-0.079-0.041-0.076-0.144 0.01-0.309v0c0.098-0.189 0.225-0.336 0.381-0.441 0.165-0.108 0.4-0.21 0.706-0.306v0c0.593-0.156 0.987-0.28 1.182-0.373 0.192-0.086 0.402-0.252 0.631-0.497 0.222-0.248 0.595-0.733 1.117-1.453v0l7.84-10.52c-0.085-0.044-0.303-0.177-0.653-0.399v0c-0.094-0.072-0.219-0.16-0.374-0.264-0.158-0.098-0.356-0.209-0.594-0.333v0c-0.97-0.505-1.84-0.567-2.613-0.186v0c-0.056 0.033-0.16 0.091-0.311 0.175-0.149 0.077-0.257 0.099-0.324 0.064v0c-0.079-0.041-0.081-0.135-0.005-0.282v0c0.089-0.171 0.188-0.301 0.297-0.391v0c0.548-0.606 1.194-0.96 1.936-1.062 0.743-0.102 1.517 0.057 2.322 0.477v0l0.809 0.456c0.454 0.275 0.824 0.487 1.11 0.636v0c0.299 0.156 0.624 0.305 0.975 0.45v0l0.536 0.244c-0.632 0.648-1.141 1.231-1.528 1.751-0.387 0.519-0.621 0.835-0.703 0.947v0l-2.906 3.928 6.036 3.144 2.778-3.681c1.245-1.646 2.446-2.881 3.603-3.704 1.16-0.814 2.361-1.259 3.601-1.334 1.244-0.081 2.607 0.203 4.091 0.852v0c0.278 0.121 0.577 0.223 0.899 0.305v0c0.181 0.009 0.299 0.028 0.354 0.057v0c0.079 0.041 0.092 0.114 0.038 0.217v0c-0.105 0.201-0.335 0.36-0.69 0.478-0.359 0.123-0.847 0.078-1.465-0.135v0c-1.119-0.412-2.1-0.567-2.944-0.464-0.835 0.1-1.664 0.494-2.487 1.181-0.829 0.684-1.778 1.748-2.848 3.191v0l-7.752 10.555c-0.21 0.27-0.355 0.482-0.435 0.634v0c-0.089 0.171-0.117 0.299-0.084 0.386 0.029 0.093 0.102 0.169 0.217 0.229v0c0.201 0.105 0.422 0.15 0.662 0.136 0.24-0.014 0.528-0.062 0.865-0.143v0c0.315-0.069 0.506-0.085 0.573-0.05v0c0.098 0.051 0.103 0.159 0.017 0.323v0c-0.159 0.305-0.56 0.577-1.203 0.815-0.644 0.238-1.321 0.386-2.032 0.441-0.702 0.053-1.205 0-1.51-0.158z" fill="#ba3b0a" data-fill-palette-color="primary"></path><path d="M87.018 269.49c-0.896-0.351-1.012-1.375-0.348-3.071v0c0.639-1.632 1.625-3.103 2.958-4.413 1.332-1.309 2.802-2.233 4.408-2.77 1.606-0.537 3.11-0.532 4.511 0.018v0c0.723 0.283 1.302 0.643 1.737 1.079v0c-0.581 0.806-0.997 1.404-1.245 1.794v0l-1.67 2.623c-1.37 2.047-2.276 3.483-2.717 4.308v0c-0.067 0.114-0.134 0.258-0.202 0.43v0c-0.153 0.39-0.114 0.631 0.116 0.721v0c0.282 0.11 0.616 0.031 1.002-0.239 0.384-0.263 0.866-0.665 1.447-1.205v0c0.027-0.012 0.076-0.052 0.146-0.12 0.08-0.072 0.155-0.094 0.226-0.067v0c0.109 0.043 0.122 0.17 0.039 0.381v0l-0.223 0.4c-0.347 0.528-0.82 1-1.419 1.416-0.598 0.415-1.198 0.701-1.797 0.857-0.594 0.159-1.076 0.165-1.448 0.02v0c-0.615-0.241-0.726-0.86-0.335-1.859v0c0.15-0.384 0.349-0.76 0.597-1.128v0l1.35-2.118-0.029-0.011c-1.424 1.148-2.794 1.996-4.108 2.543-1.312 0.542-2.311 0.679-2.996 0.411zM89.099 267.824c0.486 0.191 1.2 0.027 2.141-0.49 0.939-0.511 1.902-1.208 2.89-2.091 0.984-0.892 1.754-1.735 2.309-2.529v0l1.084-1.525c-0.39-0.551-0.875-0.941-1.458-1.169v0c-0.755-0.296-1.613-0.133-2.572 0.488-0.962 0.627-1.861 1.49-2.697 2.587-0.836 1.098-1.451 2.149-1.844 3.154v0c-0.171 0.435-0.25 0.781-0.24 1.036 0.008 0.262 0.137 0.441 0.387 0.539z" fill="#ba3b0a" data-fill-palette-color="primary"></path><path d="M103.35 275.118c-0.166-0.045-0.268-0.115-0.306-0.211-0.045-0.098-0.043-0.286 0.004-0.566 0.047-0.279 0.123-0.611 0.227-0.996v0c0.351-1.294 0.688-2.784 1.011-4.469v0c0.342-1.916 0.504-3.286 0.486-4.111-0.017-0.831-0.201-1.294-0.552-1.389v0c-0.232-0.063-0.434 0-0.607 0.188-0.166 0.19-0.417 0.553-0.755 1.088v0c-0.158 0.292-0.309 0.418-0.455 0.378v0c-0.146-0.04-0.181-0.199-0.106-0.477v0c0.123-0.451 0.366-0.941 0.73-1.469 0.369-0.52 0.797-0.941 1.284-1.265 0.485-0.317 0.963-0.412 1.434-0.284v0c0.836 0.227 1.262 0.98 1.278 2.26 0.018 1.273-0.159 2.881-0.53 4.825v0c-0.24 1.224-0.41 2.086-0.51 2.586-0.107 0.498-0.172 0.815-0.195 0.952v0c-0.063 0.311-0.021 0.486 0.125 0.525v0c0.345 0.094 0.894-0.17 1.647-0.792 0.761-0.627 1.484-1.399 2.168-2.318 0.691-0.917 1.134-1.737 1.331-2.459v0c0.088-0.325 0.121-0.601 0.096-0.829-0.032-0.222-0.094-0.453-0.186-0.692-0.092-0.239-0.123-0.411-0.094-0.517v0c0.076-0.279 0.404-0.621 0.983-1.026 0.582-0.412 0.992-0.585 1.232-0.52v0c0.179 0.049 0.308 0.255 0.387 0.618 0.073 0.362 0.037 0.808-0.107 1.339v0c-0.326 1.201-1.148 2.613-2.464 4.235-1.317 1.623-2.712 2.982-4.185 4.078-1.465 1.091-2.588 1.53-3.371 1.318z" fill="#ba3b0a" data-fill-palette-color="primary"></path><path d="M116.194 278.076c-0.84-0.144-1.449-0.577-1.828-1.298-0.384-0.729-0.479-1.659-0.284-2.79v0c0.236-1.375 0.818-2.789 1.744-4.242 0.934-1.458 2.01-2.623 3.226-3.494 1.224-0.871 2.364-1.215 3.422-1.034v0c0.962 0.165 1.342 0.834 1.141 2.006v0c-0.163 0.949-0.6 1.829-1.312 2.642-0.712 0.812-1.598 1.487-2.66 2.022-1.055 0.537-2.17 0.897-3.346 1.079v0c-0.172 1.003-0.134 1.756 0.115 2.258 0.25 0.496 0.689 0.799 1.319 0.907v0c0.664 0.114 1.314 0.006 1.95-0.324 0.629-0.331 1.2-0.833 1.713-1.505v0c0.081-0.105 0.155-0.19 0.221-0.255 0.067-0.065 0.148-0.09 0.243-0.073v0c0.149 0.026 0.204 0.15 0.166 0.373v0c-0.086 0.501-0.444 1.082-1.073 1.741-0.628 0.652-1.379 1.183-2.251 1.591-0.878 0.4-1.713 0.532-2.506 0.396zM117.435 271.645c0.488 0.084 1.032 0 1.634-0.253 0.608-0.251 1.15-0.643 1.625-1.175 0.474-0.525 0.775-1.161 0.903-1.906v0c0.15-0.874-0.083-1.364-0.7-1.47v0c-0.501-0.086-1.026 0.103-1.572 0.567-0.546 0.457-1.04 1.059-1.483 1.806-0.442 0.747-0.785 1.483-1.028 2.209v0c0.102 0.094 0.309 0.168 0.621 0.222z" fill="#ba3b0a" data-fill-palette-color="primary"></path><path d="M126.434 279.475c-0.171-0.012-0.253-0.073-0.246-0.183v0c0.005-0.075 0.061-0.237 0.168-0.484 0.1-0.248 0.247-0.675 0.441-1.282v0c0.486-1.537 1.118-4.112 1.894-7.724v0c0.166-0.705 0.259-1.198 0.279-1.48v0c0.017-0.24-0.033-0.364-0.15-0.372v0c-0.315-0.022-0.831 0.507-1.547 1.587v0c-0.108 0.165-0.204 0.303-0.288 0.414-0.084 0.118-0.152 0.203-0.204 0.255-0.052 0.058-0.106 0.086-0.16 0.082v0c-0.151-0.011-0.22-0.112-0.207-0.304v0c0.026-0.377 0.269-0.898 0.73-1.562 0.467-0.663 1-1.243 1.599-1.738 0.6-0.503 1.127-0.738 1.579-0.707v0c0.302 0.021 0.508 0.17 0.621 0.447 0.112 0.27 0.154 0.603 0.126 1.001v0c-0.043 0.617-0.278 1.817-0.706 3.6v0l0.031 0.002c0.97-1.462 2.005-2.613 3.104-3.453 1.099-0.84 2.023-1.234 2.77-1.182v0c0.789 0.055 1.144 0.638 1.067 1.749v0c-0.029 0.411-0.16 1.102-0.393 2.071v0l-0.884 3.34c-0.64 2.354-0.971 3.688-0.993 4.003v0c-0.01 0.137 0.016 0.26 0.078 0.367 0.055 0.107 0.157 0.166 0.308 0.177v0c0.507 0.035 1.144-0.695 1.911-2.192v0c0.069-0.202 0.172-0.298 0.309-0.289v0c0.11 0.008 0.157 0.125 0.141 0.351v0c-0.011 0.165-0.032 0.315-0.062 0.45v0c-0.177 0.663-0.492 1.278-0.946 1.847-0.46 0.561-0.955 0.998-1.487 1.312-0.531 0.307-1.003 0.447-1.415 0.418v0c-0.391-0.027-0.647-0.211-0.767-0.549-0.114-0.339-0.158-0.704-0.131-1.095v0c0.059-0.844 0.398-2.35 1.019-4.519v0c0.603-2.115 0.95-3.583 1.041-4.403v0c0.044-0.335 0.037-0.576-0.022-0.725-0.052-0.148-0.201-0.231-0.448-0.248v0c-0.583-0.041-1.234 0.303-1.953 1.031-0.719 0.722-1.381 1.623-1.987 2.704-0.606 1.081-1.024 2.079-1.253 2.993v0l-0.624 2.417c-0.151 0.479-0.484 0.917-1.002 1.315-0.517 0.398-0.964 0.584-1.341 0.558z" fill="#ba3b0a" data-fill-palette-color="primary"></path><path d="M152.312 279.346c-0.116 0.014-0.182-0.044-0.197-0.174v0c-0.026-0.225 0.05-0.518 0.23-0.879 0.172-0.366 0.401-0.622 0.689-0.766v0l0.749-0.43c0.244-0.16 0.397-0.42 0.458-0.781 0.068-0.361 0.108-0.968 0.119-1.82v0l0.325-13.526c-0.376 0.044-0.733 0.096-1.072 0.157v0c-0.385 0.08-0.734 0.176-1.046 0.289-0.305 0.112-0.495 0.172-0.57 0.181v0c-0.116 0.014-0.181-0.034-0.194-0.143v0c-0.018-0.15 0.045-0.358 0.187-0.624v0c0.184-0.381 0.415-0.679 0.695-0.892 0.28-0.213 0.633-0.355 1.061-0.425v0l3.944-0.546c0.503-0.08 0.876-0.172 1.12-0.276 0.244-0.105 0.403-0.162 0.478-0.171v0c0.13-0.015 0.201 0.035 0.215 0.152v0c0.018 0.15-0.035 0.347-0.159 0.589v0c-0.163 0.379-0.312 0.642-0.448 0.79-0.135 0.147-0.388 0.26-0.759 0.338v0l-1.362 0.253-0.38 15.183c-0.057 0.519-0.191 0.912-0.401 1.179v0l0.003 0.031c0.189 0.019 0.441 0.042 0.756 0.067 0.322 0.031 0.603 0.033 0.841 0.005v0c0.3-0.035 0.553-0.124 0.758-0.265 0.199-0.134 0.319-0.203 0.36-0.209v0c0.089-0.01 0.14 0.039 0.152 0.148v0c0.022 0.191-0.065 0.419-0.262 0.685v0c-0.581 0.83-1.189 1.282-1.824 1.356v0c-0.225 0.026-0.581 0.002-1.068-0.072v0c-0.73-0.087-1.225-0.116-1.484-0.085v0c-0.355 0.042-0.746 0.164-1.172 0.365-0.419 0.201-0.667 0.307-0.742 0.316z" fill="#ba3b0a" data-fill-palette-color="primary"></path><path d="M164.721 277.9c-0.168 0.036-0.264 0-0.287-0.107v0c-0.016-0.074-0.007-0.245 0.028-0.512 0.027-0.266 0.05-0.717 0.068-1.354v0c0.042-1.612-0.064-4.261-0.318-7.947v0c-0.035-0.724-0.082-1.223-0.141-1.499v0c-0.05-0.235-0.133-0.341-0.247-0.316v0c-0.309 0.066-0.659 0.717-1.048 1.954v0c-0.058 0.188-0.112 0.347-0.161 0.477-0.048 0.137-0.09 0.237-0.126 0.301-0.034 0.071-0.078 0.112-0.132 0.123v0c-0.148 0.032-0.242-0.047-0.282-0.235v0c-0.079-0.37 0.01-0.937 0.269-1.702 0.265-0.767 0.617-1.471 1.055-2.114 0.438-0.649 0.878-1.021 1.323-1.116v0c0.296-0.063 0.536 0.023 0.719 0.258 0.182 0.228 0.315 0.537 0.399 0.927v0c0.129 0.605 0.235 1.823 0.317 3.654v0l0.031-0.006c0.528-1.674 1.204-3.066 2.027-4.177 0.824-1.111 1.602-1.745 2.335-1.902v0c0.773-0.165 1.276 0.296 1.509 1.385v0c0.086 0.403 0.152 1.103 0.196 2.099v0l0.074 3.454c0.037 2.439 0.088 3.813 0.154 4.122v0c0.029 0.134 0.088 0.245 0.177 0.331 0.082 0.088 0.197 0.116 0.345 0.084v0c0.497-0.106 0.907-0.985 1.229-2.635v0c0.011-0.213 0.083-0.334 0.217-0.363v0c0.108-0.023 0.185 0.076 0.233 0.298v0c0.035 0.161 0.056 0.311 0.065 0.45v0c0.013 0.686-0.119 1.365-0.398 2.036-0.286 0.666-0.642 1.223-1.066 1.673-0.426 0.443-0.84 0.707-1.243 0.793v0c-0.383 0.082-0.68-0.023-0.89-0.316-0.203-0.294-0.346-0.632-0.429-1.015v0c-0.177-0.827-0.268-2.368-0.272-4.624v0c-0.006-2.199-0.079-3.706-0.218-4.52v0c-0.05-0.334-0.124-0.564-0.221-0.691-0.091-0.128-0.257-0.166-0.499-0.114v0c-0.571 0.122-1.102 0.633-1.592 1.532-0.491 0.892-0.878 1.942-1.161 3.148-0.283 1.207-0.409 2.281-0.376 3.223v0l0.07 2.495c-0.012 0.502-0.212 1.015-0.599 1.541-0.387 0.526-0.765 0.828-1.134 0.907z" fill="#ba3b0a" data-fill-palette-color="primary"></path><path d="M180.363 274.069c-0.163 0.055-0.262 0.031-0.297-0.073v0c-0.024-0.072-0.035-0.242-0.033-0.512-0.004-0.267-0.034-0.718-0.09-1.353v0c-0.148-1.606-0.564-4.224-1.25-7.854v0c-0.12-0.714-0.226-1.205-0.316-1.471v0c-0.078-0.228-0.172-0.323-0.283-0.285v0c-0.299 0.102-0.57 0.79-0.811 2.063v0c-0.036 0.194-0.07 0.358-0.104 0.493-0.032 0.142-0.061 0.246-0.089 0.314-0.026 0.074-0.064 0.12-0.117 0.137v0c-0.143 0.049-0.246-0.018-0.308-0.2v0c-0.122-0.358-0.1-0.932 0.067-1.722 0.173-0.793 0.44-1.533 0.8-2.223 0.358-0.696 0.752-1.117 1.182-1.264v0c0.286-0.098 0.535-0.041 0.745 0.172 0.208 0.205 0.376 0.496 0.504 0.873v0c0.2 0.586 0.448 1.783 0.745 3.592v0l0.03-0.01c0.328-1.724 0.835-3.186 1.522-4.386 0.688-1.2 1.386-1.921 2.096-2.163v0c0.748-0.255 1.302 0.144 1.661 1.198v0c0.133 0.39 0.28 1.078 0.441 2.062v0l0.48 3.42c0.323 2.418 0.535 3.776 0.637 4.076v0c0.044 0.13 0.116 0.233 0.214 0.308 0.092 0.078 0.209 0.092 0.353 0.043v0c0.482-0.164 0.785-1.085 0.91-2.761v0c-0.014-0.213 0.043-0.342 0.174-0.386v0c0.104-0.035 0.193 0.054 0.266 0.269v0c0.053 0.156 0.092 0.303 0.117 0.439v0c0.094 0.68 0.042 1.369-0.156 2.069-0.206 0.695-0.494 1.29-0.862 1.786-0.371 0.489-0.751 0.801-1.141 0.934v0c-0.371 0.126-0.678 0.057-0.921-0.209-0.237-0.268-0.418-0.587-0.545-0.959v0c-0.273-0.8-0.544-2.32-0.813-4.56v0c-0.265-2.183-0.514-3.671-0.748-4.462v0c-0.089-0.326-0.19-0.545-0.301-0.66-0.105-0.117-0.275-0.135-0.509-0.055v0c-0.553 0.189-1.02 0.758-1.401 1.708-0.383 0.944-0.644 2.032-0.783 3.263-0.14 1.231-0.138 2.313 0.005 3.245v0l0.363 2.469c0.047 0.5-0.091 1.033-0.413 1.601-0.322 0.567-0.662 0.912-1.021 1.034z" fill="#ba3b0a" data-fill-palette-color="primary"></path><path d="M207.484 262.123c-0.928 0.578-1.905 0.764-2.93 0.561-1.026-0.204-1.911-0.904-2.656-2.101v0c-0.777-1.249-1.131-2.677-1.062-4.282 0.06-1.608 0.529-3.204 1.407-4.787v0c-1.001-0.932-1.721-1.751-2.161-2.457v0c-0.458-0.735-0.728-1.547-0.811-2.434-0.092-0.89 0.03-1.727 0.368-2.513 0.332-0.781 0.865-1.401 1.6-1.858v0c0.817-0.509 1.491-0.629 2.023-0.36 0.531 0.268 0.952 0.651 1.261 1.147v0c0.995 1.599 0.773 4.001-0.667 7.204v0c0.271 0.293 0.847 0.776 1.729 1.451v0c0.207-0.995 0.605-1.826 1.194-2.493 0.595-0.67 1.517-1.394 2.766-2.171v0l1.812-1.09c0.881-0.548 1.462-1.197 1.74-1.946 0.275-0.754 0.19-1.491-0.257-2.208v0c-0.178-0.286-0.356-0.487-0.533-0.604-0.168-0.114-0.339-0.206-0.512-0.276-0.179-0.067-0.283-0.123-0.313-0.17v0c-0.102-0.163-0.112-0.57-0.03-1.22 0.087-0.653 0.195-1.02 0.323-1.1v0c0.012-0.007 0.064 0.005 0.157 0.036v0c0.282 0.205 0.515 0.404 0.699 0.597 0.188 0.199 0.381 0.455 0.577 0.771v0c0.618 0.992 0.912 2.019 0.885 3.081-0.028 1.062-0.368 2.083-1.02 3.064-0.653 0.981-1.571 1.84-2.757 2.578v0l-0.122 0.076c0.371 1.13 0.628 2.297 0.771 3.504 0.138 1.21 0.122 2.369-0.046 3.478v0c1.189 0.701 2.023 0.903 2.502 0.605v0c0.368-0.229 0.571-0.813 0.61-1.753v0c-0.001-0.04 0.004-0.111 0.013-0.214 0.011-0.112 0.04-0.183 0.087-0.212v0c0.128-0.08 0.247-0.032 0.356 0.143v0l0.127 0.322c0.117 0.332 0.156 0.757 0.114 1.277-0.037 0.525-0.147 1.026-0.327 1.503-0.181 0.477-0.432 0.815-0.753 1.015v0c-0.321 0.2-0.73 0.252-1.227 0.156-0.506-0.098-1.138-0.345-1.894-0.74v0c-0.336 1.035-0.766 1.93-1.291 2.687-0.525 0.756-1.109 1.334-1.752 1.733zM203.234 249.731c0.44-1.011 0.68-1.945 0.72-2.804 0.044-0.853-0.125-1.586-0.506-2.199v0c-0.345-0.554-0.743-0.927-1.192-1.117-0.45-0.19-0.908-0.139-1.376 0.152v0c-0.496 0.309-0.739 0.739-0.727 1.291 0.008 0.546 0.226 1.163 0.654 1.851v0c0.479 0.77 1.288 1.712 2.427 2.826zM207.936 260.117c0.829-0.516 1.45-1.457 1.863-2.823v0c-1.229-0.765-2.382-1.57-3.458-2.415-1.078-0.835-2.228-1.791-3.45-2.869v0c-0.519 1.027-0.739 2.104-0.662 3.23 0.087 1.128 0.442 2.194 1.067 3.198v0c0.708 1.138 1.477 1.814 2.306 2.027 0.833 0.219 1.611 0.103 2.334-0.348zM210.116 255.129c-0.004-0.904-0.126-1.869-0.367-2.893-0.238-1.034-0.537-1.962-0.895-2.784v0l-0.122 0.077c-0.718 0.447-1.282 0.887-1.693 1.32-0.405 0.43-0.668 0.885-0.789 1.366v0c1.972 1.607 3.26 2.578 3.866 2.914z" fill="#ba3b0a" data-fill-palette-color="primary"></path><path d="M233.532 243.18c-0.616 0.589-1.259 0.967-1.929 1.132-0.679 0.165-1.3 0.178-1.86 0.039-0.571-0.139-1.018-0.353-1.343-0.642v0c-0.257-0.268-0.448-0.618-0.575-1.048-0.122-0.426-0.174-0.833-0.156-1.221 0.023-0.384 0.089-0.628 0.199-0.733v0c0.07-0.067 0.142-0.06 0.218 0.02v0c0.787 0.683 1.647 1.174 2.579 1.471 0.932 0.288 1.84 0.009 2.724-0.837v0c0.705-0.675 1.062-1.431 1.071-2.267 0.004-0.841-0.365-1.649-1.107-2.424v0c-0.442-0.462-0.94-0.808-1.494-1.039-0.554-0.221-1.27-0.383-2.148-0.485v0l-4.272-0.451c-0.494-0.079-0.946-0.213-1.355-0.401-0.419-0.189-0.837-0.502-1.256-0.939v0c-0.675-0.705-1.148-1.528-1.419-2.468-0.271-0.94-0.279-1.902-0.024-2.888 0.255-0.986 0.797-1.876 1.626-2.671v0c0.68-0.651 1.372-1.047 2.076-1.187 0.698-0.135 1.295 0.055 1.789 0.572v0c0.38 0.397 0.656 1.009 0.828 1.834v0c0.071 0.322 0.032 0.555-0.118 0.698v0c-0.109 0.105-0.231 0.121-0.366 0.05-0.13-0.066-0.338-0.224-0.624-0.473v0c-1.086-1.045-2.192-1.028-3.32 0.051v0c-0.68 0.651-1.045 1.334-1.095 2.047-0.049 0.704 0.213 1.356 0.789 1.958v0c0.575 0.601 1.406 0.967 2.492 1.097v0l4.127 0.39c1.795 0.185 3.213 0.822 4.254 1.909v0c0.756 0.79 1.243 1.741 1.462 2.855 0.214 1.108 0.163 2.214-0.153 3.315-0.321 1.097-0.861 2.009-1.62 2.736z" fill="#ba3b0a" data-fill-palette-color="primary"></path><path d="M243.031 233.389c-0.51 0.604-1.217 0.524-2.12-0.239v0c-0.446-0.377-1.019-0.983-1.719-1.817v0l-3.831-4.492c-0.471-0.497-0.741-0.774-0.81-0.832v0c-0.215-0.182-0.372-0.215-0.469-0.1v0c-0.28 0.331-0.177 1.083 0.307 2.257v0c0.036 0.075 0.095 0.202 0.178 0.381 0.079 0.184 0.119 0.312 0.12 0.385 0.001 0.073-0.016 0.131-0.051 0.172v0c-0.027 0.032-0.077 0.038-0.152 0.02-0.079-0.013-0.153-0.048-0.221-0.106v0c-0.289-0.244-0.572-0.735-0.848-1.472-0.277-0.738-0.433-1.495-0.469-2.273-0.041-0.772 0.103-1.353 0.431-1.741v0c0.195-0.231 0.448-0.333 0.758-0.306 0.31 0.028 0.63 0.181 0.96 0.461v0c0.221 0.186 0.375 0.344 0.465 0.473v0l5.512 6.386c0.173 0.2 0.288 0.325 0.346 0.373v0c0.305 0.257 0.554 0.27 0.75 0.04v0c0.399-0.473 0.514-1.258 0.344-2.356-0.175-1.093-0.529-2.229-1.063-3.408-0.533-1.18-1.083-2.121-1.649-2.825v0l-1.323-1.631c-0.417-0.55-0.613-1.117-0.589-1.699 0.019-0.587 0.157-1.033 0.414-1.337v0c0.098-0.116 0.183-0.142 0.257-0.081v0c0.042 0.035 0.102 0.135 0.179 0.3 0.072 0.16 0.181 0.329 0.328 0.507v0c0.724 0.954 2.463 3.098 5.216 6.432v0l0.581 0.72c0.42 0.526 0.688 0.837 0.803 0.935v0c0.2 0.169 0.355 0.187 0.465 0.056v0c0.195-0.231 0.227-0.641 0.094-1.23-0.132-0.589-0.341-1.152-0.625-1.689v0c-0.082-0.222-0.099-0.362-0.049-0.42v0c0.071-0.084 0.172-0.071 0.303 0.04v0c0.158 0.133 0.283 0.262 0.376 0.385v0c0.43 0.535 0.74 1.143 0.929 1.825 0.189 0.682 0.263 1.324 0.221 1.928-0.042 0.604-0.196 1.063-0.462 1.378v0c-0.475 0.562-1.147 0.453-2.018-0.328v0c-0.362-0.36-0.814-0.89-1.356-1.591v0l-0.889-1.089-0.02 0.024c0.567 1.757 0.885 3.331 0.953 4.72 0.068 1.389-0.118 2.344-0.557 2.864z" fill="#ba3b0a" data-fill-palette-color="primary"></path><path d="M241.019 211.04c-0.106 0.152-0.231 0.17-0.376 0.053v0l-1.432-1.409c-0.397-0.393-0.626-0.798-0.687-1.217-0.061-0.419 0.044-0.823 0.315-1.212v0l0.064-0.094c0.063-0.09 0.116-0.137 0.16-0.14 0.044-0.003 0.11 0.034 0.199 0.113v0l1.424 1.365c0.392 0.364 0.623 0.767 0.693 1.209 0.07 0.442-0.028 0.855-0.295 1.239v0zM252.672 221.162c-0.341 0.491-0.867 0.49-1.579-0.004v0c-0.356-0.247-0.734-0.576-1.134-0.988v0l-5.425-5.423c-0.358-0.34-0.582-0.542-0.672-0.604v0c-0.232-0.161-0.396-0.17-0.495-0.03v0c-0.129 0.186-0.139 0.514-0.03 0.984 0.113 0.464 0.379 1.07 0.796 1.82v0c0.143 0.191 0.184 0.332 0.121 0.422v0c-0.067 0.096-0.179 0.089-0.337-0.02v0c-0.367-0.255-0.726-0.751-1.077-1.488-0.35-0.737-0.569-1.495-0.655-2.275-0.088-0.789 0.013-1.393 0.303-1.811v0c0.333-0.48 0.841-0.483 1.525-0.008v0c0.328 0.227 0.721 0.571 1.179 1.032v0l5.874 5.859 0.262 0.257c0.175 0.122 0.312 0.112 0.409-0.029v0c0.129-0.186 0.132-0.515 0.007-0.987-0.115-0.473-0.375-1.081-0.781-1.823v0c-0.118-0.191-0.15-0.326-0.095-0.405v0c0.067-0.096 0.202-0.073 0.405 0.068v0c0.356 0.247 0.7 0.733 1.034 1.458 0.334 0.725 0.545 1.475 0.635 2.249 0.09 0.774 0 1.356-0.27 1.746z" fill="#ba3b0a" data-fill-palette-color="primary"></path><path d="M258.268 212.325c-0.285 0.487-0.65 0.731-1.097 0.732-0.447 0.002-0.955-0.164-1.525-0.497v0c-0.421-0.246-0.85-0.549-1.285-0.907-0.439-0.352-0.701-0.565-0.786-0.638v0l-5.693-4.667-1.442 2.466c-0.045 0.077-0.106 0.093-0.183 0.048v0c-0.166-0.097-0.294-0.411-0.382-0.94-0.094-0.533-0.093-0.883 0.004-1.049v0l0.853-1.46-1.367-1.134c-0.502-0.381-0.835-0.914-1-1.6-0.165-0.686-0.119-1.248 0.138-1.687v0c0.045-0.077 0.109-0.091 0.192-0.043v0c0.065 0.038 0.214 0.22 0.445 0.547 0.234 0.336 0.51 0.64 0.828 0.914v0l1.706 1.392 1.4-2.395c0.056-0.095 0.131-0.115 0.226-0.059v0c0.131 0.076 0.239 0.395 0.326 0.955 0.083 0.566 0.092 0.906 0.026 1.018v0l-0.797 1.363 5.635 4.644c0.102 0.084 0.352 0.29 0.75 0.617 0.398 0.328 0.721 0.565 0.97 0.711v0c0.534 0.312 0.905 0.29 1.113-0.066v0c0.153-0.261 0.186-0.612 0.102-1.052-0.076-0.442-0.276-0.91-0.602-1.402v0c-0.019-0.035-0.04-0.075-0.061-0.12-0.016-0.041-0.015-0.076 0.002-0.106v0c0.049-0.083 0.177-0.064 0.385 0.057v0c0.326 0.191 0.626 0.557 0.898 1.099 0.273 0.542 0.438 1.116 0.497 1.724 0.055 0.614-0.037 1.125-0.276 1.535z" fill="#ba3b0a" data-fill-palette-color="primary"></path><path d="M263.238 203.021c-0.369 0.768-0.952 1.236-1.749 1.402-0.806 0.169-1.726 0.005-2.762-0.492v0c-1.258-0.605-2.458-1.551-3.6-2.841-1.146-1.298-1.971-2.652-2.475-4.062-0.502-1.416-0.52-2.607-0.056-3.573v0c0.423-0.88 1.17-1.062 2.242-0.547v0c0.867 0.417 1.594 1.079 2.181 1.986 0.586 0.907 0.991 1.945 1.215 3.113 0.227 1.162 0.267 2.333 0.119 3.513v0c0.917 0.441 1.651 0.611 2.204 0.51 0.546-0.104 0.957-0.444 1.234-1.02v0c0.292-0.607 0.366-1.262 0.223-1.964-0.146-0.696-0.472-1.383-0.978-2.06v0c-0.079-0.106-0.14-0.201-0.184-0.283-0.044-0.082-0.046-0.167-0.004-0.254v0c0.066-0.136 0.201-0.155 0.405-0.057v0c0.459 0.22 0.918 0.724 1.379 1.51 0.455 0.783 0.759 1.65 0.913 2.601 0.144 0.954 0.042 1.794-0.307 2.518zM257.394 200.063c0.214-0.446 0.283-0.993 0.205-1.64-0.075-0.654-0.303-1.282-0.684-1.885-0.375-0.6-0.904-1.064-1.585-1.392v0c-0.799-0.384-1.334-0.294-1.606 0.27v0c-0.22 0.459-0.183 1.014 0.114 1.668 0.29 0.65 0.733 1.291 1.33 1.921 0.597 0.63 1.211 1.162 1.842 1.595v0c0.119-0.073 0.247-0.251 0.384-0.537z" fill="#ba3b0a" data-fill-palette-color="primary"></path><path d="M267.612 193.037c-0.206 0.547-0.529 0.958-0.97 1.233-0.45 0.279-0.946 0.386-1.487 0.322v0c-0.147-0.019-0.347-0.16-0.601-0.424-0.253-0.264-0.484-0.578-0.692-0.943v0c-0.108-0.202-0.146-0.345-0.114-0.429v0c0.034-0.09 0.131-0.134 0.292-0.132v0c1.434-0.063 2.327-0.565 2.681-1.505v0c0.179-0.476 0.174-0.904-0.014-1.283-0.186-0.386-0.526-0.671-1.022-0.857v0c-0.669-0.252-1.678-0.197-3.024 0.163v0l-1.002 0.262c-0.758 0.2-1.362 0.311-1.811 0.333-0.455 0.02-0.902-0.053-1.34-0.217v0c-0.708-0.266-1.27-0.694-1.687-1.284-0.424-0.593-0.683-1.259-0.78-2-0.096-0.741-0.018-1.446 0.234-2.116v0c0.479-1.274 1.153-1.748 2.021-1.421v0c0.315 0.119 0.587 0.353 0.815 0.703v0c0.166 0.202 0.233 0.348 0.199 0.438v0c-0.039 0.103-0.181 0.16-0.427 0.17v0c-0.407 0.067-0.737 0.211-0.989 0.432-0.25 0.215-0.454 0.534-0.614 0.959v0c-0.186 0.496-0.203 0.941-0.05 1.336 0.15 0.402 0.428 0.679 0.833 0.831v0c0.232 0.087 0.52 0.111 0.866 0.072 0.348-0.046 0.899-0.165 1.655-0.358v0l0.982-0.27c0.836-0.251 1.525-0.385 2.068-0.402 0.536-0.019 1.061 0.068 1.576 0.262v0c0.65 0.244 1.217 0.7 1.701 1.367 0.486 0.66 0.799 1.42 0.938 2.28 0.139 0.86 0.06 1.686-0.237 2.478z" fill="#ba3b0a" data-fill-palette-color="primary"></path><path d="M0.477 142.338c0-5.295 4.292-9.587 9.587-9.587 5.295 0 9.587 4.292 9.587 9.587 0 5.295-4.292 9.587-9.587 9.587-5.295 0-9.587-4.292-9.587-9.587z" fill="#ba3b0a" data-fill-palette-color="primary"></path><path d="M260.349 142.338c0-5.295 4.292-9.587 9.587-9.587 5.295 0 9.587 4.292 9.587 9.587 0 5.295-4.292 9.587-9.587 9.587-5.295 0-9.587-4.292-9.587-9.587z" fill="#ba3b0a" data-fill-palette-color="primary"></path></g></svg></g></svg></g></svg></g></svg></g><defs></defs></svg><rect width="280" height="280" fill="none" stroke="none" visibility="hidden"></rect></g></svg></g></svg>